<?xml version="1.0" encoding="utf-8"?>
<!-- Generator: Adobe Illustrator 16.0.0, SVG Export Plug-In . SVG Version: 6.00 Build 0)  -->
<!DOCTYPE svg PUBLIC "-//W3C//DTD SVG 1.1//EN" "http://www.w3.org/Graphics/SVG/1.1/DTD/svg11.dtd">
<svg version="1.1" id="Layer_1" xmlns="http://www.w3.org/2000/svg" xmlns:xlink="http://www.w3.org/1999/xlink" x="0px" y="0px"
	 width="800px" height="100px" viewBox="0 0 800 100" enable-background="new 0 0 800 100" xml:space="preserve">
<path fill="#196C37" d="M-0.067,100h800.136c0.011-16.998,0.012-33.995,0.012-50.993c-0.572,0.473-1.145,0.944-1.717,1.417
	c0.111-1.582,0.113-3.184,0.391-4.736c0.1-0.555,0.865-0.99,1.326-1.48c0-0.641,0-1.279,0-1.92c-0.756-0.096-1.514-0.19-2.271-0.285
	c0.531-1.406,1.08-2.807,1.586-4.223c0.164-0.459,0.219-0.957,0.324-1.438c-0.324,0.443-0.744,0.846-0.955,1.338
	c-0.965,2.254-1.855,4.539-2.818,6.793c-0.184,0.431-0.572,0.774-0.867,1.158c-0.363-0.326-0.73-0.651-1.092-0.98
	c-6.283-5.711-1.123-11.788-0.531-17.706c0.178-1.785,0.68-3.538,1.01-5.31c0.023-0.133-0.141-0.299-0.215-0.451
	c-0.213,0.274-0.529,0.518-0.623,0.826c-1.338,4.444-2.641,8.898-3.965,13.346c-0.174,0.584-0.426,1.145-0.643,1.715
	c-0.273-0.658-0.824-1.338-0.777-1.971c0.297-3.849,0.73-7.686,1.107-11.528c0.02-0.194-0.055-0.398-0.084-0.599
	c-0.084,0.168-0.213,0.328-0.242,0.506c-0.662,4.01-1.305,8.023-2.002,12.027c-0.025,0.145-0.695,0.373-0.83,0.266
	c-0.523-0.412-0.928-0.975-1.428-1.423c-0.309-0.275-0.709-0.446-1.07-0.663c0.166,0.422,0.416,0.832,0.482,1.27
	c0.346,2.273,0.666,4.553,0.918,6.838c0.02,0.174-0.568,0.414-0.873,0.623c-0.133-0.338-0.324-0.664-0.389-1.015
	c-0.6-3.302-1.178-6.608-1.775-9.911c-0.013-0.07-0.122-0.122-0.217-0.177c0.01,0.099,0.02,0.198,0.029,0.297
	c-0.001,0.011-0.003,0.021-0.004,0.032c0.315,3.071,0.673,6.137,0.92,9.211c0.078,0.98-0.137,1.982-0.219,2.975
	c-0.611-0.924-1.771-1.87-1.736-2.77c0.123-3.147,0.654-6.279,1.035-9.417c-0.002-0.011-0.003-0.023-0.004-0.035
	c-0.029-0.111-0.061-0.225-0.09-0.336c0.021,0.015,0.044,0.028,0.068,0.042c-0.248-2.517-0.494-5.036-0.752-7.554
	c-0.031-0.307-0.123-0.607-0.186-0.912c-0.135,0.313-0.355,0.615-0.387,0.938c-0.418,4.283-0.803,8.568-1.219,12.852
	c-0.025,0.273-0.229,0.531-0.348,0.795c-0.186-0.191-0.422-0.356-0.551-0.582c-0.891-1.551-1.484-3.377-2.682-4.631
	c-5.35-5.615-2.221-9.905,1.928-14.138c0.186-0.19,0.244-0.508,0.361-0.767c-0.207,0.152-0.445,0.276-0.619,0.461
	c-1.061,1.125-2.361,2.117-3.115,3.423c-3.033,5.256-4.541,1.819-6.242-0.968c-0.148-0.244-0.479-0.381-0.725-0.567
	c-0.059,0.241-0.121,0.481-0.174,0.724c-1.377,6.346-2.752,12.691-4.127,19.035c-0.861-0.352-2.379-0.566-2.486-1.077
	c-1.316-6.284-2.572-12.591-3.545-18.937c-0.811-5.304-1.223-10.668-1.836-16.004c-0.018-0.147-0.309-0.264-0.473-0.396
	c-0.311,0.702-0.949,1.438-0.879,2.101c0.594,5.588,2.023,11.188,1.826,16.736c-0.254,7.088-1.785,14.133-2.789,21.192
	c-0.035,0.249-0.32,0.462-0.488,0.691c-0.242-0.349-0.691-0.698-0.691-1.048c-0.002-1.263,0.148-2.526,0.242-3.789
	c-0.588,0.544-1.146,1.129-1.785,1.604c-0.15,0.112-0.762-0.063-0.848-0.249c-4.119-8.931-2.9-17.743,0.656-26.487
	c0.539-1.325,1.189-2.605,1.736-3.928c0.381-0.923,0.674-1.882,1.004-2.824c-0.502,0.777-1.189,1.491-1.48,2.342
	c-2.299,6.701-4.521,13.43-6.766,20.151c-0.107,0.325-0.18,0.663-0.27,0.995c-0.262-0.251-0.578-0.464-0.775-0.758
	c-6.398-9.486-12.785-18.982-19.184-28.471c-0.082-0.121-0.295-0.152-0.445-0.227c0.045,0.373,0.018,0.775,0.148,1.115
	c4.148,10.756,8.314,21.505,12.463,32.262c0.135,0.352,0.105,0.768,0.152,1.154c-0.322-0.242-0.66-0.467-0.965-0.731
	c-0.586-0.509-1.156-1.04-1.732-1.562c0.445,0.59,1.076,1.117,1.299,1.781c0.98,2.907,1.855,5.85,2.719,8.794
	c0.08,0.276-0.189,0.654-0.295,0.985c-0.275-0.259-0.557-0.512-0.826-0.776c-4.607-4.518-8.807-9.581-13.93-13.409
	c-5.596-4.182-12.043-7.224-18.127-10.749c-0.287-0.166-0.65-0.198-0.979-0.293c0.291,0.234,0.57,0.487,0.877,0.7
	c4.736,3.268,9.729,6.24,14.035,10c1.051,0.918-0.215,4.408-0.281,6.72c-0.027,0.927,0.475,1.874,0.432,2.796
	c-0.047,0.95-0.467,1.881-0.723,2.82c-0.73-0.43-1.465-0.855-2.191-1.293c-0.344-0.209-0.672-0.441-1.008-0.664
	c0.264,0.4,0.621,0.768,0.777,1.205c0.652,1.824,1.307,3.654,1.807,5.522c0.096,0.356-0.492,0.896-0.766,1.351
	c-0.307-0.664-0.607-1.332-0.92-1.993c-0.172-0.362-0.326-0.741-0.551-1.07c-0.568-0.837-1.172-1.649-1.762-2.472
	c0.303,1.057,1.16,2.776,0.82,3.063c-1.998,1.668-4.273,3.002-6.457,4.449c0-0.285-0.107-0.641,0.021-0.846
	c0.43-0.682,0.943-1.309,1.426-1.957c-0.508,0.438-1.018,0.875-1.525,1.313c-0.033-0.351-0.209-0.769-0.078-1.039
	c1.4-2.907,2.855-5.788,4.275-8.688c0.184-0.378,0.27-0.812,0.342-1.229c0.016-0.089-0.266-0.34-0.33-0.314
	c-0.283,0.114-0.572,0.264-0.797,0.47c-1.141,1.043-2.557,1.933-3.314,3.21c-0.883,1.489-1.168,3.329-1.75,5.004
	c-0.102,0.289-0.393,0.513-0.596,0.767c-0.027-0.306-0.152-0.642-0.07-0.913c0.783-2.564,1.613-5.114,2.396-7.679
	c0.154-0.509,0.162-1.062,0.236-1.595c-0.285,0.348-0.678,0.652-0.836,1.05c-0.682,1.695-1.289,3.421-1.934,5.131
	c-0.258,0.685-0.541,1.358-0.813,2.037c-0.146-0.11-0.414-0.213-0.422-0.33c-0.053-0.946-0.121-1.901-0.051-2.843
	c0.039-0.551,0.322-1.085,0.494-1.626c-0.365,0.312-0.988,0.94-1.055,0.886c-0.699-0.566-1.4-1.178-1.922-1.904
	c-1.031-1.432-1.947-2.943-2.912-4.422c0.641,1.394,1.305,2.777,1.912,4.185c0.396,0.917,0.711,1.868,1.063,2.806
	c-0.613-0.902-1.242-1.797-1.84-2.709c-1.479-2.256-2.939-4.523-4.422-6.775c-0.076-0.116-0.311-0.128-0.469-0.188
	c0.158,0.503,0.283,1.02,0.48,1.507c1.23,3.02,2.693,5.969,3.607,9.081c0.336,1.151-0.604,2.677-0.961,4.032
	c-0.895-1.314-1.795-2.623-2.672-3.947c-0.146-0.221-0.184-0.512-0.271-0.771c-0.148,0.505-0.414,1.009-0.412,1.513
	c0.002,0.686,0.209,1.37,0.328,2.055c-0.346-0.541-0.684-1.084-1.037-1.619c-0.139-0.211-0.309-0.4-0.463-0.6
	c0.059,0.256,0.125,0.51,0.174,0.768c0.357,1.9,0.709,3.803,1.063,5.705c-0.086-0.034-0.236-0.052-0.25-0.104
	c-0.617-2.451-1.801-4.929-1.703-7.354c0.176-4.383,1.127-8.733,1.725-13.102c0.07-0.525,0.156-1.232-0.117-1.581
	c-0.465-0.593-1.207-0.969-1.834-1.437c-0.166,0.961-0.365,1.916-0.496,2.881c-0.363,2.674-0.689,5.352-1.059,8.024
	c-0.031,0.229-0.277,0.431-0.424,0.644c-0.262-0.338-0.59-0.645-0.775-1.021c-0.871-1.786-1.697-3.596-2.557-5.389
	c-0.135-0.284-0.354-0.528-0.533-0.791c0.035,0.365,0.041,0.738,0.113,1.096c0.709,3.563,1.752,7.1,1.998,10.691
	c0.104,1.535-1.447,3.183-2.244,4.779c-0.34-2.376-0.855-4.746-0.941-7.131c-0.041-1.116,0.746-2.263,1.158-3.395
	c-0.621,0.947-1.475,1.816-1.822,2.855c-1.441,4.313-3.086,2.305-4.807,0.262c-0.207-0.246-0.52-0.401-0.783-0.599
	c0.111,0.382,0.273,0.757,0.328,1.146c0.418,2.923,0.822,5.849,1.16,8.782c0.006,0.061-1.256,0.336-1.26,0.32
	c-1.131-3.945-2.215-7.903-3.266-11.87c-0.424-1.604-0.768-3.231-1.168-4.844c-0.037-0.153-0.209-0.272-0.318-0.409
	c-0.066,0.362-0.234,0.74-0.182,1.084c0.371,2.398,0.852,4.783,1.16,7.189c0.17,1.317,0.068,2.668,0.09,4.004
	c-1.045-1.304-2.449-2.459-3.063-3.942c-1.295-3.14-2.176-6.45-3.24-9.686c-0.08-0.242-0.277-0.446-0.42-0.668
	c0.031,0.241,0.045,0.485,0.094,0.722c0.984,4.689,1.982,9.376,2.945,14.069c0.072,0.345-0.096,0.739-0.152,1.11
	c-0.252-0.227-0.584-0.405-0.74-0.684c-1.807-3.201-3.582-6.42-5.381-9.627c-0.088-0.154-0.307-0.236-0.465-0.353
	c-0.197,0.31-0.535,0.604-0.572,0.933c-0.174,1.527-0.244,3.066-0.406,4.595c-0.033,0.302-0.311,0.578-0.475,0.866
	c-0.172-0.289-0.389-0.563-0.508-0.871c-1.678-4.336-3.336-8.68-5.021-13.012c-0.139-0.358-0.441-0.654-0.666-0.979
	c0.01,0.482-0.09,1,0.049,1.441c1.754,5.52,3.646,10.998,5.244,16.563c0.373,1.293-0.219,2.865-0.365,4.309
	c-0.549-1.131-1.156-2.238-1.633-3.398c-0.709-1.728-1.293-3.508-2.008-5.234c-0.203-0.49-0.676-0.869-1.023-1.301
	c0.094,0.522,0.164,1.051,0.287,1.565c0.967,4.062,1.975,8.115,2.867,12.193c0.082,0.376-0.545,0.907-0.844,1.366
	c-0.465-0.483-0.939-0.958-1.395-1.451c-0.814-0.884-1.605-1.788-2.426-2.666c-0.834-0.896-1.645-1.82-2.553-2.637
	c-0.596-0.535-1.344-0.9-2.023-1.343c0.549,0.732,1.516,1.431,1.58,2.203c0.32,3.847,0.4,7.714,0.566,11.573
	c-0.248-0.07-0.672-0.082-0.719-0.221c-0.465-1.379-1.021-2.756-1.236-4.18c-0.15-0.997,0.188-2.068,0.309-3.105
	c-0.24,0.965-0.463,1.934-0.73,2.891c-0.055,0.19-0.281,0.331-0.428,0.495c-0.518-0.806-1.229-1.55-1.504-2.431
	c-0.375-1.2-0.443-2.502-0.596-3.766c-0.16-1.327-0.262-2.662-0.389-3.992c-0.152,1.387-0.305,2.773-0.453,4.161
	c-0.031,0.295-0.049,0.591-0.074,0.887c-0.123-0.313-0.297-0.616-0.365-0.942c-0.977-4.719-1.939-9.44-2.914-14.16
	c-0.051-0.246-0.189-0.475-0.287-0.711c-0.072,0.283-0.246,0.582-0.203,0.846c0.365,2.213,0.801,4.416,1.145,6.633
	c0.176,1.123,0.203,2.27,0.297,3.406c-0.721-1.15-1.439-2.301-2.162-3.449c-0.6-0.951-1.203-1.897-1.803-2.846
	c-0.055,0.041-0.162,0.107-0.156,0.119c0.486,1.025,1.078,2.012,1.457,3.075c1.24,3.47,2.408,6.964,3.57,10.461
	c0.041,0.124-0.271,0.365-0.418,0.552c-0.166-0.289-0.26-0.68-0.506-0.85c-4.408-3.058-9.166-5.879-7.896-12.52
	c0.02-0.102-0.137-0.236-0.211-0.355c-0.146,0.217-0.311,0.422-0.432,0.65c-1.715,3.227-3.406,6.465-5.154,9.672
	c-0.223,0.409-0.736,0.658-1.117,0.982c-0.18-0.459-0.475-0.906-0.52-1.379c-0.359-3.733-0.668-7.473-1.002-11.209
	c-0.016-0.176-0.125-0.345-0.189-0.518c-0.129,0.268-0.363,0.531-0.369,0.801c-0.082,3.376-0.135,6.753-0.188,10.129
	c-0.01,0.609,0.021,1.22,0.033,1.83c-0.654-0.51-1.436-0.924-1.92-1.562c-0.375-0.493-0.414-1.263-0.539-1.922
	c-0.326-1.72-0.617-3.446-0.922-5.171c-0.482,1.965-0.789,3.996-1.498,5.875c-0.678,1.797-1.773,3.436-2.688,5.144
	c-1.434-1.864-3.748-3.574-4.107-5.626c-0.596-3.418,0.066-7.053,0.178-10.598c0.008-0.273-0.158-0.553-0.244-0.829
	c-0.121,0.312-0.313,0.616-0.354,0.938c-0.252,1.996-0.469,3.998-0.697,5.998c-0.201-1.792-0.387-3.585-0.604-5.375
	c-0.313-2.604-0.643-5.205-0.984-7.805c-0.035-0.275-0.195-0.533-0.299-0.801c-0.107,0.275-0.316,0.555-0.307,0.825
	c0.189,5.483,0.416,10.966,0.588,16.449c0.008,0.259-0.498,0.792-0.615,0.752c-0.592-0.198-1.248-0.431-1.672-0.858
	c-1.939-1.954-3.805-3.981-5.709-5.971c-0.221-0.229-0.523-0.382-0.787-0.57c-0.088,0.312-0.258,0.625-0.25,0.935
	c0.064,2.249,0.172,4.498,0.24,6.747c0.006,0.199-0.176,0.404-0.27,0.607c-0.129-0.064-0.254-0.168-0.391-0.187
	c-0.451-0.061-0.908-0.091-1.363-0.133c0.008,0.65,0.014,1.301,0.02,1.951c-0.592-2.024-1.252-4.032-1.742-6.08
	c-0.223-0.931-0.111-1.941-0.15-2.916c-0.123,0.942-0.059,1.965-0.418,2.808c-0.389,0.916-1.17,1.665-1.781,2.487
	c-0.809-1.179-1.6-2.372-2.436-3.532c-0.406-0.566-0.895-1.075-1.348-1.61c0.324,0.632,0.625,1.276,0.98,1.892
	c0.217,0.377,0.652,0.675,0.752,1.068c0.387,1.537,0.678,3.098,1.004,4.65c-1.217-1.053-2.529-2.014-3.627-3.178
	c-1.4-1.484-2.604-3.155-3.947-4.696c-0.355-0.407-0.916-0.634-1.383-0.942c0.277,0.469,0.52,0.964,0.838,1.402
	c1.938,2.672,3.906,5.321,5.82,8.01c0.178,0.248,0.197,0.888,0.021,1.049c-0.41,0.375-0.967,0.666-1.508,0.783
	c-0.193,0.041-0.576-0.479-0.766-0.805c-0.219-0.377-0.32-0.821-0.473-1.236c0.02,0.392,0.174,0.842,0.035,1.166
	c-0.686,1.609-1.447,3.186-2.184,4.773c-0.23-1.764-0.6-3.525-0.643-5.295c-0.031-1.209,0.393-2.429,0.615-3.644
	c-0.719,0.858-1.418,1.731-2.16,2.566c-0.314,0.354-0.721,0.63-1.086,0.94c-0.238-0.918-0.406-1.863-0.768-2.729
	c-0.08-0.191-0.844-0.096-1.293-0.133c0.063-0.322,0.254-0.686,0.162-0.957c-0.461-1.383-1.01-2.735-1.494-4.11
	c-0.148-0.421-0.188-0.88-0.279-1.321c-0.047,0.41-0.117,0.82-0.141,1.232c-0.137,2.59-0.244,5.182-0.42,7.769
	c-0.023,0.339-0.391,0.653-0.6,0.978c-1.779-1.467-3.557-2.939-5.35-4.391c-0.078-0.063-0.32,0.03-0.461,0.102
	c-0.438,0.222-1.051,0.363-1.254,0.727c-0.459,0.816-0.713,1.747-1.049,2.631c-0.299-0.184-0.662-0.314-0.877-0.57
	c-0.154-0.185-0.105-0.535-0.162-0.811c-0.775-3.782-1.549-7.565-2.336-11.346c-0.066-0.31-0.242-0.596-0.367-0.893
	c-0.088,0.357-0.287,0.729-0.244,1.07c0.219,1.695,0.516,3.379,0.756,5.072c0.086,0.619,0.09,1.25,0.131,1.876
	c-0.344-0.458-0.682-0.919-1.033-1.371c-0.063-0.081-0.176-0.121-0.266-0.181c0.012,0.189-0.02,0.395,0.043,0.564
	c0.541,1.456,1.357,2.865,1.592,4.367c0.344,2.213,0.281,4.49,0.365,6.74c0.004,0.128-0.23,0.265-0.355,0.397
	c-0.148-0.216-0.393-0.415-0.434-0.65c-0.852-4.731-1.695-9.464-2.492-14.205c-0.111-0.666,0.037-1.376,0.064-2.065
	c-0.215,0.631-0.342,1.313-0.676,1.872c-0.207,0.348-0.727,0.509-1.107,0.754c-0.186-0.687-0.363-1.374-0.559-2.058
	c-0.088-0.313-0.207-0.618-0.311-0.926c-0.045,0.395-0.162,0.797-0.121,1.184c0.156,1.498,0.369,2.99,0.531,4.488
	c0.01,0.088-0.346,0.297-0.35,0.293c-0.4-0.461-0.783-0.936-1.168-1.41c0.277,0.765,0.598,1.518,0.826,2.297
	c0.475,1.629,1.193,3.264,1.25,4.914c0.045,1.291-0.76,2.611-1.188,3.918c-0.969-1.434-2.684-2.826-2.768-4.311
	c-0.26-4.635,0.104-9.305,0.197-13.961c0.006-0.29-0.215-0.584-0.33-0.877c-0.158,0.303-0.41,0.59-0.461,0.908
	c-0.285,1.812-0.52,3.631-0.783,5.446c-0.125,0.862-0.273,1.722-0.412,2.583c-0.348-0.781-0.676-1.572-1.053-2.34
	c-0.188-0.384-0.459-0.725-0.693-1.085c0.135,1.041,0.367,2.08,0.389,3.124c0.064,2.944,0.047,5.891,0.023,8.835
	c0,0.044-0.627,0.204-0.701,0.108c-3.32-4.297-6.605-8.62-9.922-12.92c-0.229-0.297-0.668-0.431-1.01-0.641
	c0.201,0.419,0.291,0.983,0.619,1.234c3.83,2.928,3.504,6.397,1.391,10.118c-0.16,0.283-0.43,0.505-0.646,0.755
	c-0.027-0.958-0.168-1.93-0.057-2.871c0.152-1.268,0.5-2.511,0.766-3.764c-0.488,1.355-0.973,2.712-1.461,4.066
	c-0.26,0.72-0.525,1.438-0.787,2.156c-0.074-1.336-0.195-2.67-0.207-4.006c-0.01-1.095,0.111-2.19,0.174-3.286
	c-0.219,1.005-0.43,2.011-0.662,3.013c-0.039,0.167-0.166,0.313-0.25,0.47c-0.08-0.202-0.229-0.403-0.23-0.606
	c-0.045-7.316-0.074-14.634-0.113-21.951c-0.002-0.247-0.074-0.494-0.113-0.741c-0.096,0.235-0.266,0.467-0.275,0.705
	c-0.316,7.433-0.611,14.865-0.926,22.298c-0.021,0.535-0.152,1.065-0.232,1.598c-0.355-0.383-0.807-0.713-1.047-1.156
	c-1.063-1.957-2.063-3.947-3.1-5.918c-0.027-0.053-0.262-0.055-0.357-0.004c-0.299,0.164-0.732,0.303-0.84,0.563
	c-0.371,0.91-0.629,1.868-0.93,2.809c-0.477-0.561-0.971-1.107-1.424-1.686c-0.309-0.393-0.561-0.83-0.838-1.248
	c0.188,0.738,0.391,1.471,0.557,2.213c0.104,0.461,0.152,0.936,0.227,1.403c-0.297-0.328-0.615-0.639-0.887-0.986
	c-5.141-6.612-10.273-13.23-15.42-19.839c-0.094-0.123-0.311-0.148-0.471-0.221c0.035,0.22,0.004,0.481,0.113,0.65
	c2.527,3.879,5.004,7.792,7.633,11.6c0.327,0.474,0.684,0.929,1.051,1.377c0.001,0,0.002,0,0.002,0.001
	c0.001,0.001,0.001,0.002,0.002,0.003c1.222,1.491,2.576,2.892,3.508,4.543c0.609,1.078,0.133,2.77,0.148,4.184
	c-0.26-0.25-0.742-0.507-0.734-0.746c0.021-0.566,0.572-1.263,0.385-1.66c-1.012-2.151-2.177-4.228-3.307-6.32
	c-0.001-0.001-0.003-0.002-0.004-0.004c-0.039-0.067-0.249-0.043-0.381-0.063c-0.045,0.419-0.225,0.879-0.111,1.249
	c0.525,1.714,1.357,3.366,1.645,5.112c0.26,1.586-0.043,3.265-0.098,4.902c-1.119-1.627-2.484-3.143-3.289-4.912
	c-0.875-1.926-1.225-4.09-1.82-6.146c-0.076-0.262-0.26-0.493-0.393-0.737c-0.074,0.281-0.248,0.579-0.209,0.844
	c0.613,3.979,1.281,7.947,1.857,11.93c0.078,0.542-0.268,1.145-0.418,1.72c-0.398-0.183-0.928-0.259-1.174-0.563
	c-1.533-1.91-3.004-3.873-4.504-5.813c-0.107-0.139-0.285-0.224-0.432-0.334c-0.174,0.294-0.367,0.578-0.52,0.882
	c-0.326,0.646-0.631,1.302-0.945,1.954c-0.334-0.807-1.102-1.728-0.926-2.401c0.689-2.646,1.682-5.212,2.547-7.813
	c0.084-0.25,0.078-0.531,0.115-0.797c-0.201,0.176-0.424,0.332-0.592,0.533c-0.123,0.148-0.201,0.348-0.254,0.537
	c-2.043,7.398-4.529,5.693-7.217,0.363c-0.129-0.255-0.438-0.42-0.662-0.627c0.043,0.301,0.049,0.612,0.135,0.899
	c0.4,1.326,0.771,2.665,1.25,3.965c1.129,3.063,0.719,4.559-2.916,3.032c-0.338-0.142-0.775-0.046-1.166-0.061
	c0.6,0.254,1.203,0.5,1.799,0.762c0.57,0.25,1.131,0.515,1.697,0.773c-0.314,0.33-0.602,0.9-0.949,0.939
	c-0.588,0.065-1.221-0.181-1.822-0.343c-0.291-0.079-0.555-0.265-0.832-0.401c0.215,0.311,0.441,0.614,0.641,0.934
	c0.215,0.34,0.643,0.783,0.553,1.021c-0.15,0.398-0.598,0.756-1.006,0.944c-0.141,0.064-0.549-0.415-0.814-0.669
	c-0.197-0.19-0.363-0.417-0.543-0.627c0.088,0.238,0.225,0.472,0.254,0.718c0.059,0.52,0.063,1.046,0.088,1.569
	c-0.363-0.412-0.959-0.777-1.053-1.243c-0.463-2.323-0.795-4.674-1.174-7.015c-0.02-0.115-0.055-0.229-0.082-0.344
	c-0.58,0.348-1.158,0.696-1.738,1.045c-0.313-3.063-0.658-6.121-0.91-9.188c-0.041-0.497,0.334-1.026,0.518-1.542
	c-0.104-0.016-0.275-0.076-0.301-0.039c-0.336,0.486-0.746,0.951-0.951,1.49c-0.447,1.167-0.785,2.375-1.168,3.564
	c-0.758-1.624-2.063-3.221-2.15-4.881c-0.141-2.689,0.518-5.42,0.826-8.135c0.025-0.216-0.043-0.441-0.068-0.662
	c-0.098,0.176-0.244,0.342-0.289,0.53c-0.504,2.163-0.775,4.408-1.535,6.476c-1.34,3.654-2.973,7.199-4.482,10.789
	c-1.098-0.725-2.203-1.436-3.283-2.186c-0.283-0.195-0.482-0.509-0.721-0.768c0.104,0.344,0.176,0.7,0.314,1.029
	c0.553,1.313,1.129,2.617,1.695,3.924c-0.83-0.216-1.652-0.53-2.496-0.594c-0.293-0.023-0.635,0.57-0.955,0.883
	c-0.627-2.246-1.25-4.496-1.889-6.74c-0.098-0.34-0.273-0.658-0.414-0.988c-0.025,0.432-0.088,0.863-0.07,1.292
	c0.023,0.626,0.107,1.249,0.154,1.874c0,0.006-0.266,0.049-0.27,0.034c-0.168-0.567-0.402-1.132-0.455-1.713
	c-0.119-1.313-0.098-2.638-0.232-3.947c-0.066-0.626-0.357-1.229-0.547-1.842c-0.047,0.601-0.098,1.201-0.139,1.803
	c-0.07,0.972-0.133,1.943-0.199,2.915c-0.873-1.143-1.738-2.292-2.627-3.422c-0.398-0.507-0.848-0.974-1.275-1.459
	c0.256,0.499,0.488,1.01,0.771,1.492c0.24,0.41,0.596,0.76,0.797,1.186c0.836,1.77,1.631,3.559,2.441,5.34
	c-1.201-1.756-2.645-3.396-3.559-5.291c-2.428-5.035-4.627-10.181-6.922-15.279c-0.07-0.16-0.203-0.293-0.307-0.438
	c-0.096,0.508-0.232,1.014-0.279,1.526c-0.082,0.888-0.109,1.782-0.16,2.673c-0.387-0.27-0.768-0.549-1.164-0.805
	c-0.074-0.047-0.207,0-0.313,0.002c0.086,0.33,0.094,0.711,0.268,0.983c2.355,3.682,1.27,9.644-2.242,12.263
	c-0.102,0.076-0.107,0.289-0.143,0.441c-0.367,1.615-0.73,3.23-1.096,4.845c-1.184-1.799-3.045-3.47-3.412-5.423
	c-0.822-4.365-0.898-8.871-1.281-13.32c-0.043-0.492-0.111-0.984-0.166-1.476c-0.133,0.508-0.408,1.025-0.373,1.522
	c0.488,7.164,1.072,14.322,1.473,21.491c0.049,0.897-0.816,1.845-1.258,2.769c-0.602-0.619-1.488-1.14-1.744-1.879
	c-0.486-1.4-0.664-2.92-0.865-4.404c-0.121-0.896-0.045-1.821-0.059-2.733c-0.199,1.026-0.432,2.047-0.59,3.079
	c-0.275,1.79-0.508,3.588-0.756,5.383c-0.602-0.36-1.648-0.64-1.73-1.093c-0.459-2.544-0.914-5.134-0.885-7.702
	c0.012-1.115,1.184-2.217,1.828-3.326c-0.82,0.996-1.637,1.994-2.459,2.987c-0.461,0.558-0.93,1.108-1.395,1.663
	c-0.424-1.254-1.125-2.488-1.225-3.768c-0.33-4.305-0.441-8.627-0.654-12.942c-0.016-0.295-0.182-0.582-0.277-0.873
	c-0.113,0.319-0.326,0.64-0.324,0.958c0.012,2.628,0.107,5.256,0.078,7.882c-0.01,0.823-0.324,1.642-0.5,2.463
	c-0.461-0.716-1.121-1.376-1.344-2.161c-0.553-1.947-0.902-3.952-1.354-5.93c-0.029-0.128-0.244-0.326-0.34-0.31
	c-0.834,0.149-1.998,0.061-2.426,0.573c-1.209,1.452-2.115,3.155-3.141,4.76c-0.668-0.454-1.369-0.865-1.994-1.371
	c-1.211-0.979-2.375-2.015-3.574-3.008c-0.082-0.068-0.295,0.021-0.447,0.037c0.805,1.031,1.396,2.488,2.453,3.017
	c3.563,1.782,2.088,3.551,0.252,5.419c-0.092,0.094-0.74-0.105-0.814-0.293c-0.35-0.888-0.539-1.838-0.879-2.73
	c-0.598-1.573-1.264-3.121-1.902-4.68c-0.088,0.053-0.262,0.126-0.254,0.156c0.408,1.75,1.271,3.527,1.15,5.234
	c-0.186,2.611-1.041,5.176-1.668,7.746c-0.021,0.088-0.939,0.099-0.957,0.026c-0.299-1.215-0.564-2.442-0.732-3.682
	c-0.045-0.321,0.266-0.69,0.414-1.038c-0.266,0.215-0.498,0.506-0.801,0.627c-0.434,0.173-0.916,0.223-1.377,0.325
	c-0.006-0.802-0.084-1.613,0.016-2.401c0.043-0.346,0.453-0.644,0.697-0.963c-0.365,0.189-0.719,0.499-1.1,0.541
	c-0.572,0.063-1.445,0.169-1.703-0.145c-2.252-2.738-4.396-5.566-6.572-8.368c-0.123-0.157-0.342-0.3-0.359-0.465
	c-0.07-0.651-0.078-1.31-0.109-1.966c-0.547,0.862-1.076,1.733-1.643,2.581c-0.334,0.501-0.725,0.966-1.088,1.447
	c-0.314-0.721-0.623-1.444-0.945-2.161c-0.244-0.547-0.506-1.088-0.76-1.631c0.033,0.559,0.244,1.182,0.072,1.668
	c-2.254,6.377-4.561,12.734-6.887,19.086c-0.031,0.084-0.479,0.016-0.732,0.02c0.043-1.098,0.035-2.199,0.146-3.289
	c0.059-0.569,0.457-1.114,0.473-1.676c0.072-2.851,0.035-5.703,0.129-8.553c0.016-0.453,0.504-0.888,0.764-1.336
	c0.727-1.256,1.449-2.514,2.174-3.771c-0.959,1.18-1.902,2.371-2.883,3.533c-0.484,0.577-1.033,1.1-1.555,1.646
	c-0.039-0.72-0.102-1.439-0.111-2.16c-0.066-4.257-0.115-8.514-0.186-12.771c-0.004-0.188-0.166-0.375-0.254-0.563
	c-0.139,0.344-0.381,0.682-0.398,1.031c-0.225,4.775-0.404,9.554-0.639,14.328c-0.023,0.473-0.328,0.932-0.502,1.398
	c-0.158-0.416-0.359-0.821-0.463-1.25c-0.766-3.163-1.502-6.333-2.273-9.494c-0.051-0.206-0.316-0.359-0.482-0.536
	c-0.129,0.47-0.441,0.976-0.359,1.403c0.824,4.28,2.01,8.518,2.443,12.832c0.184,1.8-1.189,3.757-1.854,5.643
	c-0.49-2.039-1.141-4.055-1.43-6.121c-0.309-2.221,0.045-4.568-0.488-6.712c-0.547-2.21-1.893-4.209-2.736-6.36
	c-0.535-1.365-0.79-2.84-1.171-4.265c-0.428,1.53-0.861,3.06-1.281,4.593c-0.561,2.042-1.189,4.07-1.649,6.135
	c-0.888,3.982-1.677,7.986-2.515,11.979c-0.055,0.262-0.178,0.508-0.27,0.761c-0.1-0.097-0.284-0.19-0.286-0.288
	c-0.11-4.6-0.295-9.199-0.247-13.797c0.015-1.461,0.71-2.905,0.984-4.377c0.081-0.438-0.211-0.943-0.333-1.418
	c-0.186,0.407-0.439,0.798-0.546,1.225c-0.808,3.238-1.585,6.483-2.385,9.723c-0.031,0.127-0.187,0.222-0.285,0.332
	c-0.147-0.264-0.411-0.521-0.426-0.791c-0.271-4.854-0.505-9.71-0.773-14.563c-0.026-0.476-0.223-0.94-0.34-1.411
	c-0.078,0.381-0.22,0.76-0.223,1.141c-0.04,4.455-0.053,8.91-0.093,13.365c-0.003,0.326-0.155,0.652-0.239,0.979
	c-0.292-0.212-0.646-0.374-0.862-0.646c-0.467-0.59-0.818-1.272-1.3-1.849c-0.755-0.903-1.579-1.75-2.375-2.621
	c0.658,1.102,1.555,2.128,1.93,3.319c1.171,3.711,2.153,7.482,3.177,11.238c0.056,0.207-0.108,0.654-0.267,0.709
	c-0.877,0.305-0.858,0.274-0.825,2.197c0.007,0.402-0.284,0.811-0.438,1.215c-0.333-0.223-0.862-0.374-0.971-0.677
	c-2.318-6.478-8.914-11.608-6.243-19.669c0.048-0.147-0.077-0.352-0.122-0.529c-0.106,0.087-0.278,0.156-0.308,0.266
	c-2.087,7.738-2.689-0.705-4.103-0.4c-0.099,0.021-0.277-0.326-0.418-0.503c-0.072,0.115-0.139,0.233-0.217,0.345
	c-1.495,2.127-3.076,4.2-4.45,6.402c-0.704,1.127-0.841,2.63-1.617,3.68c-0.411,0.557-1.634,0.539-2.505,0.709
	c-0.192,0.037-0.443-0.225-0.667-0.35c0.143,0.241,0.373,0.469,0.413,0.725c0.135,0.874,0.203,1.758,0.297,2.637
	c-0.578-0.252-1.155-0.504-1.733-0.756c-0.148-0.064-0.295-0.13-0.443-0.195c0.086,0.287,0.28,0.588,0.242,0.856
	c-0.193,1.354-0.447,2.698-0.679,4.047c-0.7-0.598-1.97-1.166-2.002-1.798c-0.148-2.929,0.021-5.876,0.134-8.814
	c0.035-0.911,0.25-1.815,0.383-2.723c-0.589,1.082-1.241,2.137-1.744,3.258c-0.288,0.643-0.271,1.416-0.501,2.093
	c-0.301,0.882-0.712,1.726-1.076,2.587c-0.799-0.863-1.749-1.642-2.319-2.637c-0.208-0.364,0.368-1.341,0.798-1.865
	c0.527-0.642,1.385-1.016,1.901-1.663c0.63-0.792,1.054-1.747,1.568-2.631c-1.265,0.475-2.535,0.937-3.772,1.476
	c-0.045,0.02,0.479,1.003,0.326,1.178c-0.612,0.702-1.386,1.262-2.101,1.875c-1.068-1.617-2.134-3.234-3.205-4.848
	c-0.29-0.438-0.593-0.865-0.89-1.299c-0.321,0.436-0.645,0.868-0.962,1.307c-0.151,0.207-0.326,0.409-0.427,0.642
	c-1.044,2.394-2.076,4.792-3.111,7.19c-0.2-0.328-0.572-0.654-0.575-0.985c-0.031-3.066,0.012-6.134,0.002-9.2
	c-0.001-0.363-0.189-0.725-0.29-1.088c-0.101,0.32-0.273,0.637-0.29,0.961c-0.215,4.234-0.324,8.478-0.655,12.703
	c-0.104,1.325-0.79,2.604-1.209,3.904c-0.937-1.141-1.873-2.281-2.813-3.42c-0.344-0.416-0.697-0.825-1.046-1.237
	c0.216,0.479,0.336,1.042,0.664,1.428c2.451,2.884,3.507,5.854,0.615,9.063c-0.58,0.643-1.368,1.1-2.06,1.643
	c-0.224-0.714-0.554-1.414-0.652-2.145c-0.282-2.098-0.471-4.209-0.696-6.314c-0.191,1.875-0.321,3.758-0.598,5.62
	c-0.163,1.097-0.56,2.159-0.852,3.235c-0.743-1.491-2.146-2.996-2.115-4.472c0.143-6.7,0.696-13.392,1.074-20.089
	c0.02-0.348-0.217-0.709-0.334-1.064c-0.051,0.365-0.081,0.735-0.156,1.096c-1.261,6.094-2.518,12.189-3.824,18.274
	c-0.071,0.331-0.577,0.569-0.881,0.851c-0.188-0.355-0.408-0.698-0.558-1.068c-1.418-3.492-2.857-6.979-4.208-10.496
	c-0.288-0.751-0.351-1.629-0.341-2.445c0.03-2.56,0.144-5.117,0.226-7.677c-0.192,0.057-0.528,0.075-0.554,0.175
	c-0.156,0.604-0.097,1.301-0.373,1.83c-3.22,6.184-6.486,12.344-9.749,18.506c-0.062,0.116-0.238,0.172-0.36,0.256
	c0.032-0.379-0.053-0.822,0.116-1.126c1.065-1.913,2.187-3.794,3.291-5.686c0.212-0.363,0.431-0.724,0.637-1.09
	c0.007-0.013-0.128-0.124-0.129-0.122c-0.357,0.363-0.748,0.705-1.052,1.11c-0.937,1.247-1.84,2.52-2.756,3.782
	c-0.037-1.365-0.07-2.73-0.116-4.096c-0.006-0.191-0.066-0.384-0.131-0.565c-0.009-0.024-0.266-0.012-0.275,0.021
	c-0.296,1.07-0.668,2.131-0.824,3.222c-0.096,0.676,0.232,1.403,0.202,2.1c-0.031,0.699-0.268,1.39-0.431,2.081
	c-0.005,0.02-0.187-0.002-0.286-0.004c0.085-0.697,0.199-1.393,0.242-2.092c0.021-0.357-0.087-0.723-0.137-1.084
	c-0.137,0.28-0.318,0.548-0.404,0.844c-0.72,2.469-1.409,4.947-2.146,7.412c-0.091,0.303-0.41,0.539-0.624,0.807
	c-2.06-1.775-2.286-3.728-0.603-5.895c0.112-0.145,0.022-0.445,0.027-0.674c-0.174,0.102-0.403,0.162-0.512,0.313
	c-0.88,1.193-1.737,2.403-2.601,3.608c-1.596-3.155-3.458-6.209-4.708-9.495c-1.116-2.935-1.555-6.125-2.304-9.2
	c-0.007-0.028-0.177-0.017-0.271-0.024c0.034,0.59,0.126,1.183,0.091,1.768c-0.223,3.684-0.458,7.369-0.749,11.049
	c-0.022,0.287-0.495,0.539-0.758,0.807c-0.331-0.906-0.644-1.818-0.997-2.716c-0.31-0.788-0.664-1.56-0.998-2.339
	c-0.049,0.313-0.203,0.654-0.124,0.93c0.119,0.412,0.626,0.805,0.581,1.155c-0.386,2.96-0.848,5.909-1.347,8.853
	c-0.021,0.123-0.819,0.307-0.915,0.188c-0.332-0.412-0.513-0.945-0.751-1.433c0.092,0.705,0.395,1.462,0.238,2.105
	c-0.514,2.103-1.183,4.169-1.838,6.234c-0.047,0.149-0.465,0.18-0.711,0.266c-0.248-1.203-0.495-2.406-0.742-3.61
	c-0.022-0.107-0.041-0.216-0.061-0.324c-0.167,0.066-0.332,0.141-0.502,0.197c-0.689,0.23-1.372,0.578-2.075,0.624
	c-0.297,0.02-0.636-0.6-0.956-0.928c0.711-0.31,1.423-0.616,2.134-0.928c0.455-0.199,0.908-0.404,1.361-0.606
	c-0.264,0.001-0.553-0.068-0.788,0.014c-6.04,2.131-3.311-1.999-2.992-4.266c0.175-1.245,0.666-2.445,1.014-3.666
	c-0.694,0.938-1.442,1.841-2.073,2.82c-5.446,8.461-3.436-2.066-5.54-2.227c-0.403-0.03-0.748-0.841-1.119-1.291
	c0.173,0.498,0.356,0.994,0.517,1.498c0.773,2.42,1.643,4.816,2.238,7.279c0.149,0.617-0.589,1.449-0.92,2.182
	c-0.248-0.375-0.521-0.736-0.737-1.129c-0.305-0.557-0.567-1.136-0.848-1.705c-0.035,0.726,0.208,1.672-0.159,2.133
	c-0.959,1.205-2.083,2.345-3.343,3.22c-0.775,0.538-1.921,0.544-2.901,0.788c0.184-1.879,0.298-3.77,0.57-5.637
	c0.36-2.482,0.854-4.944,1.259-7.42c0.044-0.271-0.118-0.575-0.184-0.863c-0.14,0.237-0.308,0.463-0.415,0.714
	c-1.462,3.433-2.905,6.873-4.391,10.294c-0.137,0.316-0.538,0.518-0.816,0.771c0.012-0.367-0.002-0.736,0.041-1.1
	c0.273-2.289,0.542-4.58,0.849-6.866c0.149-1.12,0.375-2.229,0.566-3.343c-0.511,0.979-1.13,1.916-1.509,2.943
	c-0.649,1.764-1.135,3.586-1.723,5.371c-0.089,0.271-0.363,0.481-0.552,0.72c-0.244-1.079-1.042-2.492-0.63-3.175
	c1.484-2.459,3.473-4.607,5.094-6.992c2.69-3.958,5.246-8.008,7.844-12.027c0.048-0.074-0.071-0.257-0.113-0.389
	c-0.171,0.146-0.372,0.271-0.511,0.444c-4.125,5.153-8.252,10.304-12.355,15.475c-0.658,0.83-1.177,1.771-1.805,2.626
	c-0.639,0.871-1.333,1.701-2.003,2.549c0.261-0.985,0.527-1.969,0.766-2.961c0.012-0.051-0.214-0.159-0.329-0.241
	c-0.206,0.341-0.379,0.706-0.623,1.018c-0.409,0.521-0.861,1.007-1.295,1.507c-0.332-0.859-0.623-1.739-1.015-2.57
	c-0.166-0.352-0.546-0.602-0.828-0.896c-0.053,0.253-0.041,0.545-0.168,0.752c-1.302,2.119-2.623,4.226-3.956,6.324
	c-0.042,0.065-0.378,0.035-0.381,0.02c-0.077-0.5-0.16-1.003-0.182-1.508c-0.32-7.471-0.629-14.941-0.953-22.412
	c-0.009-0.209-0.145-0.412-0.222-0.618c-0.048,0.242-0.142,0.485-0.138,0.728c0.115,6.146,0.256,12.294,0.334,18.441
	c0.006,0.492-0.528,0.974-0.594,1.487c-0.111,0.872-0.048,1.766-0.059,2.649c-0.218-0.938-0.43-1.876-0.659-2.811
	c-0.057-0.234-0.171-0.454-0.259-0.681c-0.048,0.262-0.139,0.524-0.136,0.786c0.026,2.171,0.07,4.342,0.108,6.514
	c-0.534-1.748-1.044-3.504-1.621-5.238c-0.125-0.375-0.489-0.672-0.743-1.005c0.054,0.384,0.106,0.768,0.164,1.15
	c0.035,0.233,0.086,0.466,0.113,0.7c0.185,1.6,0.366,3.199,0.547,4.799c-0.199-0.209-0.53-0.394-0.575-0.632
	c-0.437-2.323-1.291-4.702-1.063-6.968c0.147-1.465,1.902-2.766,2.921-4.152c0.065-0.089-0.004-0.278-0.011-0.421
	c-0.16,0.103-0.362,0.171-0.474,0.312c-2.755,3.453-5.492,6.921-8.252,10.37c-0.865,1.081-1.788,2.114-2.685,3.169
	c-0.133-2.959-0.342-5.918-0.359-8.877c-0.006-1.094,0.443-2.191,0.67-3.289c0.005-0.025-0.156-0.086-0.239-0.129
	c-0.403,0.947-0.795,1.9-1.216,2.842c-0.094,0.211-0.287,0.378-0.435,0.565c-0.077-0.211-0.195-0.417-0.226-0.634
	c-0.241-1.693-0.43-3.395-0.708-5.082c-0.177-1.078-0.479-2.135-0.725-3.201c-0.167,1.162-0.481,2.324-0.473,3.484
	c0.033,4.492,0.211,8.982,0.218,13.475c0.001,0.59-0.677,1.181-1.04,1.771c-0.896-0.601-2.541-1.189-2.55-1.804
	c-0.031-2.052,0.459-4.124,0.882-6.161c0.195-0.941,0.696-1.818,1.059-2.725c-0.41,0.495-0.814,0.994-1.236,1.479
	c-0.041,0.047-0.192-0.004-0.292-0.009c0.054-0.788,0.106-1.575,0.163-2.364c0.087-1.225,0.176-2.448,0.265-3.672
	c-0.316,1.063-0.603,2.137-0.974,3.181c-0.064,0.181-0.485,0.235-0.741,0.348c-0.19-0.685-0.375-1.37-0.574-2.052
	c-0.11-0.379-0.245-0.75-0.368-1.125c-0.019,0.369-0.005,0.744-0.062,1.108c-0.796,5.087-1.598,10.173-2.423,15.255
	c-0.034,0.206-0.32,0.371-0.488,0.556c-0.119-0.241-0.365-0.5-0.335-0.722c0.236-1.753,0.474-3.509,0.811-5.244
	c0.39-2.002,1.118-3.968,1.265-5.98c0.149-2.05-0.224-4.139-0.392-6.208c-0.011-0.133-0.232-0.249-0.355-0.372
	c-0.087,0.209-0.212,0.409-0.256,0.627c-0.825,4.057-1.633,8.118-2.466,12.174c-0.082,0.401-0.3,0.775-0.455,1.162
	c-0.287-0.309-0.782-0.586-0.831-0.928c-0.572-4.041-2.353-2.172-4.126-0.928c-1.251,0.881-2.621,1.593-3.938,2.381
	c-0.197-2.053-0.407-4.104-0.585-6.158c-0.108-1.252-0.167-2.508-0.248-3.762c-0.136,1.231-0.155,2.492-0.455,3.682
	c-0.163,0.646-0.838,1.15-1.21,1.763c-0.121,0.198-0.026,0.536-0.007,0.808c0.008,0.115,0.126,0.233,0.11,0.337
	c-0.069,0.438-0.169,0.873-0.258,1.31c-0.262-0.257-0.535-0.503-0.782-0.773c-0.205-0.225-0.379-0.477-0.566-0.717
	c-0.027,0.174-0.084,0.348-0.077,0.52c0.033,0.805,0.083,1.607,0.126,2.411c-0.942-0.774-1.916-1.514-2.812-2.339
	c-0.378-0.348-0.592-0.875-0.881-1.322c-0.019,0.545-0.149,1.114-0.037,1.631c0.307,1.41,0.9,2.783,1.02,4.201
	c0.08,0.945-0.439,1.949-0.748,2.908c-0.033,0.104-0.618,0.186-0.662,0.109c-0.699-1.195-1.461-2.375-1.964-3.654
	c-0.235-0.6,0.049-1.403,0.098-2.114c-0.183,0.559-0.208,1.339-0.593,1.614c-0.395,0.283-1.291,0.285-1.689,0.008
	c-0.32-0.223-0.504-1.239-0.272-1.566c2.065-2.92,4.239-5.762,6.366-8.637c0.115-0.156,0.09-0.416,0.13-0.628
	c-0.527,0.351-1.18,0.601-1.562,1.069c-2.013,2.477-3.939,5.022-5.953,7.498c-0.225,0.275-1.026,0.482-1.195,0.326
	c-0.445-0.412-1.048-1.134-0.937-1.563c0.231-0.892,0.889-1.671,1.364-2.501c0.69-1.205,1.374-2.414,2.061-3.622
	c-0.966,1.231-1.849,2.545-2.937,3.657c-0.494,0.506-1.396,0.613-2.112,0.902c-0.245-1.181-0.495-2.359-0.733-3.541
	c-0.079-0.391-0.13-0.787-0.194-1.182c-0.094,0.455-0.198,0.906-0.278,1.363c-0.406,2.295-0.788,4.596-1.227,6.884
	c-0.059,0.306-0.393,0.559-0.6,0.836c-0.08-0.075-0.239-0.173-0.225-0.222c0.084-0.291,0.253-0.564,0.308-0.859
	c0.058-0.312,0.094-0.66,0.015-0.959c-0.576-2.188-1.197-4.364-1.77-6.553c-0.118-0.451-0.092-0.939-0.133-1.411
	c-0.328,0.327-0.642,0.671-0.987,0.98c-2.449,2.2-4.904,4.394-7.357,6.59c-0.163-0.304-0.477-0.611-0.467-0.908
	c0.181-5.483,0.406-10.966,0.599-16.449c0.01-0.276-0.188-0.559-0.29-0.838c-0.109,0.257-0.289,0.505-0.316,0.771
	c-0.436,4.229-0.851,8.461-1.279,12.691c-0.018,0.177-0.115,0.346-0.175,0.518c-0.121-0.129-0.328-0.246-0.35-0.391
	c-0.324-2.17-0.623-4.342-0.928-6.514c0.007,3.164,0.502,6.431-0.127,9.464c-0.539,2.599-2.364,4.931-3.621,7.382
	c-0.73-0.738-1.842-1.356-2.12-2.237c-0.856-2.713-1.39-5.528-2.07-8.298c-0.03-0.121-0.277-0.189-0.423-0.283
	c-0.085,0.243-0.173,0.484-0.255,0.729c-0.837,2.486-1.664,4.977-2.527,7.454c-0.062,0.177-0.384,0.263-0.584,0.392
	c-0.007-0.311-0.019-0.621-0.02-0.933c-0.013-3.653-0.017-7.306-0.052-10.958c-0.002-0.275-0.228-0.549-0.35-0.822
	c-0.045,0.281-0.104,0.563-0.133,0.846c-0.382,3.818-0.749,7.639-1.158,11.455c-0.031,0.287-0.353,0.544-0.54,0.815
	c-0.894-1.052-2-1.99-2.637-3.179c-1.334-2.494-2.417-5.123-3.619-7.688c-0.082-0.174-0.293-0.287-0.445-0.429
	c-0.038,0.146-0.131,0.301-0.105,0.433c1.288,6.504-3.511,9.211-7.667,12.324c-0.378,0.283-0.703,0.638-1.052,0.959
	c0.059-0.732-0.039-1.521,0.203-2.187c1.282-3.528,2.646-7.026,3.993-10.53c0.192-0.5,0.455-0.972,0.686-1.457
	c-0.354,0.425-0.745,0.823-1.05,1.28c-0.364,0.545-0.568,1.216-0.994,1.696c-0.619,0.697-1.375,1.272-2.073,1.9
	c0.28-1.789,0.585-3.574,0.833-5.368c0.189-1.374,0.305-2.757,0.454-4.137c-0.389,1.26-0.888,2.498-1.145,3.784
	c-0.596,2.972-1.051,5.971-1.613,8.949c-0.195,1.039-0.534,2.05-0.808,3.072c-0.119-1-0.247-1.998-0.354-3
	c-0.073-0.68-0.116-1.363-0.173-2.045c-0.094,0.688-0.131,1.391-0.292,2.063c-0.592,2.471-1.216,4.934-1.854,7.393
	c-0.068,0.264-0.304,0.484-0.462,0.725c-0.131-0.273-0.305-0.533-0.385-0.82c-0.237-0.849-0.438-1.708-0.653-2.563
	c0.092,0.873,0.371,1.777,0.235,2.613c-0.255,1.576-0.738,3.116-1.165,4.66c-0.046,0.166-0.351,0.26-0.536,0.389
	c-0.077-0.242-0.207-0.48-0.222-0.725c-0.132-2.065-0.444-4.146-0.301-6.194c0.126-1.821,0.689-3.63,1.216-5.397
	c0.18-0.605,0.833-1.07,1.27-1.6c-0.61,0.396-1.309,0.703-1.813,1.206c-1.602,1.597-3.109,3.287-4.695,4.899
	c-0.718,0.729-1.537,1.357-2.311,2.031c0.007-1.611-0.244-3.274,0.076-4.82c0.611-2.959,1.558-5.848,2.337-8.773
	c0.139-0.521,0.143-1.078,0.21-1.619c-0.328,0.475-0.75,0.908-0.965,1.429c-0.563,1.357-1.001,2.767-1.552,4.129
	c-0.605,1.497-1.281,2.964-1.927,4.444c-0.093-0.109-0.271-0.225-0.265-0.329c0.131-2.175-0.07-4.446,0.503-6.501
	c1.395-5.004,3.154-9.905,4.746-14.854c0.059-0.182-0.104-0.435-0.164-0.654c-0.177,0.165-0.438,0.297-0.518,0.5
	c-1.699,4.328-3.376,8.665-5.064,12.998c-0.18,0.462-0.406,0.907-0.611,1.36c-0.208-0.438-0.479-0.857-0.612-1.316
	c-0.464-1.617-0.881-3.248-1.315-4.873c-0.995,1.851-1.972,3.711-2.993,5.547c-0.36,0.646-0.836,1.228-1.248,1.847
	c-0.666,1.003-1.322,2.013-1.982,3.02c0.154-1.401,0.194-2.827,0.485-4.2c0.803-3.797,1.712-7.57,2.572-11.355
	c0.02-0.088-0.041-0.194-0.064-0.293c-0.133,0.174-0.308,0.329-0.392,0.523c-1.875,4.336-3.732,8.679-5.627,13.006
	c-0.135,0.307-0.538,0.497-0.816,0.742c-0.077-0.414-0.272-0.847-0.213-1.24c0.496-3.31,1.049-6.609,1.553-9.918
	c0.053-0.352-0.099-0.735-0.156-1.104c-0.131,0.327-0.314,0.644-0.383,0.983c-0.853,4.208-1.672,8.421-2.547,12.624
	c-0.123,0.591-0.498,1.129-0.757,1.691c-0.364-0.33-0.725-0.664-1.093-0.989c-0.175-0.154-0.364-0.294-0.546-0.44
	c0.08,0.234,0.226,0.469,0.229,0.705c0.015,0.99-0.014,1.98-0.026,2.971c-0.462-0.701-1.364-1.441-1.308-2.097
	c0.203-2.337,0.703-4.651,1.16-6.96c0.111-0.561,0.487-1.068,0.741-1.6c-0.418,0.312-0.898,0.566-1.246,0.943
	c-5.342,5.77-3.321-2.732-5.606-2.91c-0.201-0.016-0.374-0.381-0.56-0.586c0.062,0.291,0.163,0.58,0.179,0.873
	c0.17,3.085,0.327,6.171,0.488,9.258c-0.437-0.104-1.103-0.061-1.275-0.331c-3.26-5.114-1.682-10.034,0.667-14.919
	c0.119-0.247,0.025-0.596,0.031-0.896c-0.7,0.949-1.517,1.834-2.069,2.863c-0.744,1.384-1.282,2.879-1.909,4.325
	c-0.445-1.646-0.943-3.278-1.311-4.941c-0.179-0.808-0.082-1.672-0.166-2.505c-0.141-1.385-0.327-2.766-0.493-4.146
	c-0.135,0.049-0.375,0.077-0.389,0.148c-0.342,1.805-0.881,3.605-0.941,5.423c-0.141,4.26-0.188,8.522-0.242,12.785
	c0.242-0.394,0.484-0.789,0.725-1.185c-0.193,0.676-0.421,1.344-0.57,2.029c-0.067,0.31-0.117,0.624-0.18,0.934
	c-0.014,1.024-0.027,2.047-0.045,3.071c-0.003,0.159-0.225,0.315-0.345,0.474c-0.062-0.209-0.206-0.432-0.172-0.623
	c0.169-0.977,0.365-1.949,0.563-2.921c0.008-0.593,0.018-1.186,0.025-1.779c-0.11,0.181-0.217,0.364-0.331,0.542
	c-0.116,0.182-0.292,0.324-0.44,0.485c0.055-0.532,0.168-1.065,0.15-1.595c-0.023-0.657-0.154-1.311-0.238-1.965
	c-0.18,0.376-0.314,0.783-0.546,1.123c-0.814,1.193-1.663,2.363-2.498,3.542c-0.285-2.242-1.178-4.627-0.694-6.689
	c0.547-2.337,2.342-4.376,3.558-6.563c0.215-0.388,0.25-0.875,0.367-1.316c-0.28,0.301-0.609,0.57-0.834,0.908
	c-1.736,2.611-3.448,5.236-5.177,7.852c-0.209,0.317-0.474,0.598-0.713,0.896c0.076-0.395,0.097-0.811,0.241-1.18
	c0.231-0.59,0.549-1.146,0.82-1.723c0.642-1.363,1.276-2.729,1.914-4.092c-0.954,1.436-1.782,2.982-2.914,4.262
	c-0.562,0.635-1.676,0.785-2.547,1.139c-0.128,0.052-0.29,0.021-0.436,0.028c0.146,0.505,0.38,1.003,0.418,1.517
	c0.072,0.979,0.032,1.965,0.038,2.949c-0.277-0.104-0.694-0.129-0.802-0.324c-0.244-0.441-0.311-0.977-0.49-1.457
	c-0.636-1.713-1.268-3.43-1.952-5.123c-0.15-0.372-0.513-0.658-0.778-0.983c0.045,0.499-0.006,1.032,0.153,1.493
	c0.615,1.783,1.395,3.516,1.919,5.323c0.314,1.083,0.268,2.271,0.384,3.411c-0.506-1.064-0.902-2.203-1.545-3.178
	c-0.995-1.506-2.131-2.923-3.262-4.333c-0.548-0.683-1.221-1.264-1.838-1.892c0.497,0.795,1.11,1.541,1.467,2.395
	c1.165,2.783,2.238,5.604,3.325,8.419c0.032,0.083-0.181,0.263-0.279,0.396c-0.509-0.445-1.019-0.891-1.527-1.336
	c0.473,0.646,0.971,1.275,1.403,1.947c0.142,0.221,0.111,0.552,0.159,0.833c-1.258-0.607-2.996-0.894-3.665-1.895
	c-1.073-1.604-1.436-3.684-2.107-5.558c-0.03-0.083-0.148-0.136-0.226-0.202c-0.102,0.119-0.235,0.225-0.301,0.361
	c-0.625,1.305-1.221,2.625-1.866,3.92c-0.256,0.515-0.616,0.979-0.928,1.466c-0.24-0.46-0.742-0.964-0.673-1.37
	c0.294-1.734,0.67-3.469,1.205-5.142c0.196-0.614,0.915-1.062,1.396-1.585c-0.546,0.322-1.189,1.005-1.618,0.89
	c-0.846-0.228-2.035-0.744-2.256-1.414c-0.544-1.647-0.582-3.458-0.893-5.189c-1.265-7.046,5.548-7.652,8.841-11.048
	c0.781-0.807,1.917-1.275,2.906-1.871c1.379-0.83,2.774-1.633,4.162-2.448c-1.447,0.587-3.012,0.984-4.318,1.798
	c-3.611,2.25-7.13,4.648-10.649,7.044c-1.189,0.81-2.309,1.734-3.387,2.69c-5.047,4.475-10.068,8.982-15.121,13.451
	c-0.057,0.05-0.634-0.32-0.615-0.379c1.091-3.372,2.211-6.734,3.356-10.089c0.107-0.313,0.392-0.567,0.594-0.85
	c-0.3,0.225-0.616,0.431-0.898,0.677c-0.61,0.529-1.204,1.08-1.805,1.622c0.187-0.843,0.271-1.724,0.575-2.521
	c3.728-9.775,7.493-19.537,11.231-29.309C75.67,2.863,75.903,1.922,76.188,1c-0.592,0.946-1.149,1.918-1.782,2.837
	c-5.442,7.902-10.88,15.808-16.377,23.673c-0.616,0.881-1.595,1.507-2.406,2.251c-0.405-1.783-0.629-3.632-1.249-5.337
	c-2.026-5.58-4.19-11.109-6.325-16.648c-0.115-0.299-0.445-0.514-0.676-0.768c0.067,0.314,0.114,0.633,0.204,0.94
	c2.124,7.31,4.463,14.567,6.229,21.962c0.432,1.809-0.995,4.07-1.605,6.113c-0.378,1.268-0.805,2.521-1.256,3.764
	c-0.126,0.349-0.424,0.908-0.626,0.902c-0.5-0.019-1.153-0.174-1.445-0.523c-0.372-0.445-0.447-1.137-0.65-1.723
	c-0.004,0.854,0.057,1.714-0.032,2.559c-0.095,0.916-0.33,1.816-0.504,2.725c-0.277-0.771-0.549-1.546-0.833-2.314
	c-4.278-11.57-2.517-23.389-1.413-35.174c0.053-0.568,0.625-1.117,0.594-1.654c-0.031-0.539-0.513-1.053-0.797-1.578
	c-0.101,0.521-0.247,1.037-0.296,1.563c-0.88,9.352-1.522,18.732-2.766,28.034c-0.345,2.577-2.446,4.929-3.862,7.313
	c-0.047,0.079-1.948-0.49-2.064-0.977c-0.857-3.604-1.536-7.255-2.159-10.91c-0.471-2.759-0.776-5.546-1.155-8.32
	c-1.022,1.06-1.908,2.338-3.12,3.093c-0.661,0.412-1.878-0.036-2.836-0.161c-0.153-0.02-0.234-0.402-0.396-0.573
	c-1.519-1.595-3.048-3.181-4.575-4.769c1.139,1.567,2.067,3.357,3.453,4.662c4.896,4.607-0.337,7.508-1.759,10.994
	c-0.649,1.594-1.815,2.975-2.747,4.453c-0.281-1.876-0.63-3.744-0.826-5.629c-0.271-2.611-0.415-5.236-0.644-7.854
	c-0.032-0.368-0.24-0.721-0.366-1.08c-0.068,0.337-0.164,0.672-0.2,1.013c-0.254,2.437-0.498,4.873-0.744,7.31
	c0.001-0.003,0.004-0.006,0.006-0.01c-0.014,0.148-0.028,0.298-0.041,0.446c-0.004,0.043-0.009,0.085-0.013,0.128
	c-0.091,3.979-0.182,7.958-0.296,11.937c-0.001,0.042-0.332,0.075-0.508,0.113c-0.083-0.502-0.274-1.012-0.23-1.502
	c0.318-3.518,0.684-7.033,1.034-10.548c0.001-0.042,0.002-0.083,0.003-0.125c0.015-0.146,0.03-0.293,0.045-0.439
	c-0.407,0.729-1.063,1.422-1.168,2.191c-0.38,2.789-0.559,5.604-0.86,8.402c-0.025,0.236-0.396,0.437-0.607,0.653
	c-0.551-0.671-1.642-1.423-1.554-1.995c0.265-1.734,0.967-3.405,1.541-5.087c0.195-0.571,0.515-1.101,0.777-1.649
	c-0.486,0.315-0.96,0.652-1.462,0.939c-0.623,0.356-1.269,0.673-1.905,1.007c-0.091-0.724-0.168-1.449-0.276-2.171
	c-0.417-2.791-0.821-5.584-1.281-8.369c-0.12-0.722-0.426-1.412-0.646-2.117c0.063,0.789,0.111,1.578,0.192,2.364
	c0.25,2.415,0.638,4.825,0.722,7.247c0.051,1.482-0.357,2.982-0.559,4.475c-0.426-1.427-0.833-2.859-1.282-4.279
	c-1.147-3.631-2.303-7.259-3.49-10.877c-0.091-0.278-0.451-0.469-0.686-0.699c-0.027,0.184-0.11,0.379-0.074,0.55
	c1.219,5.671,2.935,11.298,3.428,17.03c0.185,2.152-2.469,4.548-3.829,6.832c-0.718-1.304-1.482-2.584-2.142-3.918
	c-0.631-1.275-1.134-2.615-1.734-3.906c-0.242-0.521-0.593-0.992-0.895-1.484c0.075,0.531,0.076,1.088,0.243,1.59
	c0.312,0.935,0.778,1.818,1.071,2.758c0.292,0.932,0.45,1.905,0.667,2.861c-0.816-0.41-1.632-0.819-2.448-1.229
	c0,0.641,0,1.279,0,1.92c0.917,1.587,1.834,3.174,2.751,4.76c-0.917,0.014-1.834,0.027-2.751,0.04
	C-0.08,66.005-0.079,83.002-0.067,100z M797.754,85.054c0.266,0.671,0.531,1.343,0.629,1.591c0.096,1.279,0.183,2.438,0.265,3.537
	h-1.766C796.775,88.501,797.427,86.766,797.754,85.054z M790.693,44.98c0.641,1.418,1.33,2.561,1.617,3.796
	c0.094,0.405-0.859,1.053-1.332,1.589c-0.217-1.576-0.441-3.152-0.641-4.73C790.324,45.513,790.475,45.371,790.693,44.98z
	 M786.033,42.363c0.213,0.537,0.426,1.072,0.783,1.973c-0.523,1.387-1.109,2.934-1.693,4.481c-0.131-0.269-0.414-0.569-0.367-0.802
	C785.146,46.125,785.6,44.246,786.033,42.363z M781.336,46.635c0.658,1.307,1.314,2.615,1.982,3.942
	c-0.389,0.519-0.59,0.786-0.791,1.054c-0.836-1.025-1.818-1.976-2.416-3.125C779.941,48.183,780.896,47.273,781.336,46.635z
	 M768.313,59.502c-0.414-0.641-0.828-1.28-1.434-2.218c0.793-0.403,1.348-0.923,1.852-0.878c0.551,0.049,1.053,0.62,1.578,0.963
	C769.643,58.08,768.977,58.791,768.313,59.502z M773.359,47.125c-0.252-0.235-0.652-0.43-0.73-0.714
	c-0.465-1.662-0.854-3.345-1.268-5.021c0.125-0.026,0.25-0.052,0.377-0.077c-0.35-1.686-0.746-3.362-1.025-5.059
	c-0.121-0.744,0.002-1.529,0.012-2.295c0.264,0.561,0.521,1.125,0.789,1.683c0.582,1.212,1.492,2.371,1.688,3.642
	c0.371,2.428,0.342,4.917,0.457,7.383C773.664,46.813,773.463,46.972,773.359,47.125z M771.063,27.383
	c0.439,0.477,1.068,0.879,1.289,1.44c2.047,5.22,4.023,10.467,5.701,14.872c-0.283,1.331-0.338,1.589-0.393,1.847
	c-0.162-0.144-0.396-0.255-0.477-0.435c-2.24-5.056-4.518-10.097-6.631-15.205C770.281,29.245,770.871,28.231,771.063,27.383z
	 M768.225,22.313c0.631,1.034,1.262,2.068,1.955,3.203c-0.797,1.637-1.484,3.047-2.172,4.457c-0.125-0.189-0.371-0.389-0.359-0.568
	C767.82,27.039,768.025,24.676,768.225,22.313z M766.154,41.07c0.52-2.238,1.039-4.477,1.561-6.715
	c0.771,3.012,1.545,6.022,2.324,9.059c-0.303,0.344-0.484,0.551-0.666,0.756c-1.084-0.954-2.168-1.906-3.244-2.869
	C766.094,41.271,766.137,41.148,766.154,41.07z M767.303,46.975c1.92,0.035,3.83,0.666,5.746,1.061
	c-0.859,1.026-1.719,2.053-2.578,3.079c-0.385,1.643-0.771,3.284-1.156,4.927c-1.426-2.34-2.941-4.637-4.158-7.08
	C765.02,48.684,766.559,46.961,767.303,46.975z M758.43,41.838c1.105,0.822,3.199,1.74,3.131,2.451
	c-0.219,2.284-1.236,4.492-1.947,6.729c-0.684-1.357-1.369-2.715-1.824-3.614C758.061,45.043,758.246,43.439,758.43,41.838z
	 M755.334,40.452c0.328,0.79,0.656,1.581,1.096,2.639c-0.465,0.994-0.938,2.007-1.41,3.019c-0.281-0.354-0.854-0.761-0.799-1.053
	C754.506,43.506,754.947,41.984,755.334,40.452z M724.553,66.469c-0.762-1.02-2.074-2.016-2.121-3.068
	c-0.041-0.955,1.295-1.971,2.023-2.959c0.475,1.154,0.951,2.309,1.422,3.451C725.357,64.902,724.955,65.686,724.553,66.469z
	 M722.975,57.658c-0.105,0.047-0.588-0.34-0.574-0.496c0.174-1.918,0.408-3.832,0.625-5.748c1.025,1.317,2.051,2.633,3.494,4.486
	C724.924,56.708,723.965,57.219,722.975,57.658z M732.236,17.824c-0.102-0.279,0.012-0.637,0.023-0.958
	c0.217,0.123,0.516,0.192,0.641,0.378c3.408,5.072,6.818,10.145,10.143,15.272c0.203,0.313-0.295,1.083-0.791,2.693
	c-1.572-1.881-2.084-2.329-2.385-2.892c-0.443-0.826-0.734-1.732-1.09-2.605c0.18,1.133,0.391,2.26,0.527,3.396
	c0.105,0.876,0.115,1.762,0.168,2.644c-0.443-0.649-1.031-1.242-1.303-1.956C736.152,28.488,734.191,23.156,732.236,17.824z
	 M737.139,53.397c0.488,0.715,0.977,1.43,1.566,2.294c-0.48,0.527-0.803,0.882-1.127,1.236c-0.471-0.499-1.291-0.975-1.326-1.503
	C736.207,54.771,736.814,54.075,737.139,53.397z M734.355,49.522c0.529,0.631,1.057,1.262,1.65,1.968
	c-0.656,1.224-1.186,2.217-1.717,3.21c-0.465-1.173-1.109-2.317-1.305-3.534C732.91,50.703,733.869,50.075,734.355,49.522z
	 M730.848,44.695c1.205,1.389,2.154,2.431,2.992,3.556c0.057,0.077-0.719,0.772-1.105,1.18c-0.629-1.298-1.262-2.593-1.879-3.896
	C730.805,45.43,730.848,45.277,730.848,44.695z M730.994,48.584c0.305,0.846-0.727,2.173-1.145,3.279
	c-0.732-0.754-1.668-1.398-2.152-2.287c-0.721-1.327-1.121-2.828-1.658-4.254c0.293,1.31,0.607,2.615,0.869,3.932
	c0.074,0.367-0.012,0.765-0.023,1.148c-0.314-0.262-0.74-0.46-0.928-0.793c-0.881-1.577-1.697-3.189-2.41-4.547
	c0.668-2.656,1.234-4.905,1.799-7.154c0.402,0.136,1.045,0.16,1.168,0.425C728.086,41.717,729.734,45.082,730.994,48.584z
	 M720.367,35.781c0.146-1.162,0.494-2.3,0.752-3.448c1.611,1.186,3.223,2.372,4.334,3.19c-1.102,3.287-1.754,5.254-2.434,7.21
	c-0.039,0.111-0.447,0.222-0.465,0.194c-0.781-1.226-1.766-2.389-2.221-3.731C719.986,38.176,720.225,36.915,720.367,35.781z
	 M719.848,45.947c0.715,0.82,1.428,1.641,2.434,2.796c-0.822,0.521-1.293,1.054-1.621,0.978c-0.672-0.154-1.82-0.693-1.791-0.977
	C718.965,47.789,719.488,46.877,719.848,45.947z M719.225,50.189c0.648,0.493,1.896,1.065,1.844,1.467
	c-0.266,2.035-0.871,4.025-1.357,6.031c-0.699-1.527-1.4-3.056-2.176-4.745C718.195,51.865,718.711,51.027,719.225,50.189z
	 M708.393,55.156c0.172-2.309,3.229-4.402,5.016-6.591c0.682,0.167,1.363,0.335,2.043,0.503c0.15,1.957,0.316,3.913,0.436,5.872
	c0.021,0.342-0.1,0.726-0.258,1.039c-1.156,2.295-2.338,4.577-3.512,6.862C710.76,60.271,708.209,57.613,708.393,55.156z
	 M703.953,50.928c-0.709,0.867-1.373,1.681-2.037,2.494c-0.238-0.356-0.727-0.757-0.672-1.059c0.277-1.535,0.697-3.045,1.068-4.563
	C702.793,48.716,703.273,49.631,703.953,50.928z M699.738,42.432c0.646,1.316,1.295,2.631,1.945,3.955
	c-0.547,1.58-1.047,3.021-1.547,4.463c-0.439-0.726-1.279-1.471-1.246-2.174C698.988,46.586,699.43,44.512,699.738,42.432z
	 M698.75,51.07c0.414,0.773,0.828,1.547,2.07,3.868c-0.752,0.261-1.762,0.626-2.789,0.925c-0.063,0.019-0.445-0.521-0.395-0.734
	C697.965,53.766,698.371,52.422,698.75,51.07z M681.617,86.446c-0.174-1.529-0.402-3.056-0.496-4.591
	c-0.049-0.809,0.139-1.632,0.219-2.449c0.635,0.838,1.271,1.676,1.855,2.445C682.563,83.694,682.09,85.071,681.617,86.446z
	 M690.287,43.398c0.23,0.805,0.461,1.609,0.701,2.443c-0.303,1.182-0.586,2.283-0.869,3.386c-0.381-0.862-1.113-1.751-1.051-2.581
	C689.15,45.539,689.852,44.479,690.287,43.398z M690.816,57.402c-0.537,0.658-1.076,1.317-1.613,1.977
	c-0.305,0.489-0.609,0.979-0.914,1.469c-1.158-1.248-2.393-2.438-3.393-3.799c-0.166-0.226,0.902-1.795,1.047-1.743
	C687.607,55.893,689.201,56.674,690.816,57.402z M683.338,46.283c0.854,1.32,1.709,2.641,2.664,4.114
	c-0.666,1.068-1.176,1.885-1.686,2.701c-0.926-0.74-2.648-1.522-2.611-2.212C681.787,49.328,682.738,47.814,683.338,46.283z
	 M680.08,56.528c1.252,1.737,1.979,2.354,1.865,2.657c-0.551,1.484-1.326,2.887-2.021,4.316c-0.094-0.206-0.275-0.417-0.264-0.618
	C679.748,61.223,679.873,59.564,680.08,56.528z M673.389,43.715c1.209,1.734,2.42,3.469,3.705,5.309
	c-0.609,0.528-0.791,0.688-0.975,0.846c-1.012-1.85-2.031-3.694-3.012-5.559C673.045,44.193,673.287,43.918,673.389,43.715z
	 M674.395,64.242c0.875,0.979,1.752,1.959,2.621,2.93c-0.564,1.433-1.008,2.562-1.451,3.69c-0.895-0.448-2.588-0.994-2.547-1.326
	C673.238,67.742,673.891,66.002,674.395,64.242z M663.158,79.427c-0.059,0.541-0.947,0.994-1.465,1.486
	c-0.316-0.527-0.975-1.134-0.875-1.564c0.188-0.805,0.814-1.507,1.434-2.546C662.67,77.905,663.234,78.7,663.158,79.427z
	 M665.781,39.033c0.955,1.291,2.008,2.527,2.799,3.912c0.201,0.355-0.439,1.177-0.664,1.795c-0.133,0.366-0.21,0.752-0.311,1.129
	c0.009-0.005,0.018-0.009,0.027-0.014c-0.002,0.027-0.006,0.056-0.007,0.083c1.651,3.142,3.529,6.194,4.817,9.479
	c0.445,1.134-0.598,2.853-0.961,4.304c-1.449-1.968-3.59-3.756-4.164-5.953c-0.632-2.417,0.13-5.199,0.308-7.829
	c-0.009-0.016-0.018-0.032-0.026-0.048c0.002-0.007,0.004-0.014,0.006-0.021c-0.784,0.394-1.566,0.788-2.348,1.181
	C665.432,44.379,665.607,41.705,665.781,39.033z M664.492,51.238c0.766,2.629,1.543,5.256,2.27,7.896
	c0.047,0.168-0.297,0.444-0.459,0.67c-1.137-1.965-2.271-3.93-3.307-5.721C663.711,52.725,664.102,51.98,664.492,51.238z
	 M661.973,67.911c0.496,0.54,0.99,1.079,1.752,1.91c-0.682,0.533-1.17,1.101-1.344,1.017c-0.637-0.308-1.17-0.833-1.744-1.276
	C661.082,69.012,661.527,68.461,661.973,67.911z M659.367,72.503c0.625,0.745,1.25,1.491,1.967,2.348
	c-0.596,0.787-1.023,1.354-1.451,1.919c-0.391-1.005-0.865-1.989-1.125-3.026C658.674,73.401,659.148,72.92,659.367,72.503z
	 M658.863,55.816c-0.094,0.938-0.9,1.805-1.402,2.702c-0.205-0.329-0.41-0.657-0.604-0.964c0.275-1.417,0.523-2.693,0.77-3.969
	C658.074,54.332,658.932,55.12,658.863,55.816z M655.135,53.203c0.045-0.602,0.42-1.18,0.643-1.769
	c0.445,0.628,0.889,1.255,1.178,1.662c-0.363,2.583-0.639,4.749-0.986,6.904c-0.133,0.831-0.43,1.636-0.65,2.452
	c-0.158-0.901-0.451-1.803-0.449-2.703C654.875,57.566,654.977,55.381,655.135,53.203z M647.479,59.26
	c-1.605,2.647-2.121,3.498-2.637,4.35c-1.025-1.416-2.197-2.756-2.971-4.299c-0.193-0.387,1.137-2.118,1.359-2.042
	C644.805,57.809,646.271,58.657,647.479,59.26z M637.063,48.588c0.535,0.306,1.154,0.523,1.59,0.936
	c0.959,0.911,1.902,1.861,2.709,2.908c0.682,0.885,1.525,1.903,1.588,2.907c0.037,0.574-1.346,1.237-2.088,1.859
	c-0.58-0.737-1.244-1.425-1.721-2.225c-0.936-1.564-1.764-3.191-2.713-4.933C636.611,49.62,636.836,49.104,637.063,48.588z
	 M636.385,54.905c0.992,1.21,2.146,2.335,2.846,3.694c0.152,0.297-1.309,1.439-2.078,2.137c-0.033,0.029-0.588-0.521-1.209-1.079
	C636.092,58.066,636.238,56.486,636.385,54.905z M625.197,49.703c0.225,0.515,0.654,1.034,0.641,1.541
	c-0.059,2.131-0.248,4.258-0.391,6.386c-0.555-0.714-1.109-1.428-1.645-2.117C624.322,53.35,624.76,51.527,625.197,49.703z
	 M616.975,51.617c1.598,1.49,3.197,2.979,4.797,4.469c-1.986-0.686,0.746,9.063-3.271,1.563c-0.635-1.186-1.564-2.252-1.982-3.499
	C616.279,53.437,616.797,52.47,616.975,51.617z M609.053,71.872c-0.119-0.568-0.174-1.16-0.377-1.698
	c-0.213-0.569-0.732-1.067-0.801-1.635c-0.049-0.412,0.42-0.886,0.656-1.332c0.578,1.07,1.158,2.139,1.916,3.54
	C609.805,71.266,609.43,71.569,609.053,71.872z M609.818,59.786c-0.738-2.009-1.484-4.013-2.191-6.03
	c-0.049-0.14,0.191-0.381,0.297-0.574c1.031,1.465,2.063,2.931,2.908,4.133C610.326,58.548,610.072,59.167,609.818,59.786z
	 M606.781,43.972c0.221,0.112,0.58,0.174,0.641,0.343c1.004,2.807,1.973,5.627,2.932,8.449c0.025,0.08-0.143,0.225-0.219,0.338
	c-0.219-0.162-0.531-0.276-0.643-0.494c-1.246-2.466-2.459-4.947-3.465-6.982C606.523,44.536,606.652,44.254,606.781,43.972z
	 M602.084,86.482c-0.605,0.508-1.027,0.861-1.449,1.214c-0.711-0.871-1.43-1.737-2.111-2.632c-0.031-0.042,0.379-0.516,0.414-0.496
	C599.92,85.134,600.881,85.736,602.084,86.482z M601.91,60.77c-0.439,1.115-0.863,2.184-1.285,3.252
	c-0.334-0.589-0.998-1.215-0.938-1.758c0.16-1.399,0.641-2.762,0.992-4.14C601.068,58.959,601.457,59.795,601.91,60.77z
	 M597.303,52.046c0.869,1.491,1.738,2.981,2.506,4.296c-0.625,2.107-1.094,3.689-1.563,5.271c-1.16-2.082-2.637-4.07-3.307-6.299
	C594.705,54.531,596.457,53.152,597.303,52.046z M577.273,48.183c1.373,1.229,2.748,2.458,4.482,4.011
	c-1.902,1.541-3.357,2.721-4.813,3.899c-0.605-1.411-1.693-2.831-1.67-4.23C575.297,50.624,576.559,49.408,577.273,48.183z
	 M553.959,45.243c0.732,0.95,1.463,1.901,2.277,2.959c-0.426,0.469-0.768,0.847-1.109,1.224c-0.67-0.861-1.459-1.662-1.939-2.617
	C553.031,46.494,553.68,45.776,553.959,45.243z M546.361,51.002c0.402,0.676,0.803,1.352,1.367,2.3
	c-0.701,0.806-1.33,1.53-1.961,2.253c-0.18-0.307-0.568-0.664-0.508-0.91C545.563,53.414,545.982,52.213,546.361,51.002z
	 M541.539,41.654c1.109,1.924,2.035,3.475,2.867,5.076c0.066,0.128-0.83,0.729-0.762,0.887c0.264,0.611,0.908,1.08,1.092,1.697
	c0.246,0.828,0.301,1.752,0.236,2.619c-0.033,0.443-0.504,0.854-0.777,1.278c-0.354-0.595-0.842-1.147-1.043-1.79
	c-0.838-2.684-1.619-5.387-2.336-8.104C540.729,42.98,541.15,42.509,541.539,41.654z M539.18,49.584
	c0.961,1.371,1.92,2.741,2.992,4.27c-0.449,0.408-0.723,0.656-0.994,0.902c-0.854-1.281-1.762-2.532-2.514-3.871
	C538.52,50.629,538.992,50.026,539.18,49.584z M535.572,43.729c0.877,1.271,1.754,2.545,2.684,3.893
	c-0.4,0.464-0.605,0.701-0.811,0.938c-0.697-1.41-1.408-2.816-2.078-4.24C535.305,44.184,535.498,43.928,535.572,43.729z
	 M532.248,57.311c0.314,1.35,0.15,2.813,0.189,4.229c-0.504-0.736-1.01-1.472-1.215-1.771c-0.275-2.099-0.467-3.56-0.656-5.021
	C531.15,55.597,532.029,56.376,532.248,57.311z M521.918,49.416c2.111,1.201,4.197,2.449,6.703,3.939
	c-1.441,1.947-2.361,3.188-3.281,4.431c-1.338-2.532-2.689-5.058-3.98-7.614C521.291,50.039,521.881,49.394,521.918,49.416z
	 M512.018,48.846c1.506,1.69,3.012,3.381,4.334,4.865c-0.672,1.694-0.941,2.373-1.211,3.053c-1.572-2.117-3.174-4.215-4.639-6.403
	C510.424,50.246,511.486,49.368,512.018,48.846z M507.18,54.679c0.297,0.241,0.768,0.429,0.863,0.733
	c0.688,2.189,1.305,4.4,1.922,6.611c0.041,0.145-0.094,0.338-0.146,0.509c-0.215-0.157-0.537-0.269-0.627-0.479
	c-0.898-2.101-1.758-4.219-2.502-6.026C506.979,55.23,507.078,54.955,507.18,54.679z M502.189,41.114
	c0.002-0.126,0.158-0.249,0.244-0.373c0.143,0.103,0.352,0.175,0.418,0.314c0.66,1.376,1.328,2.751,1.92,4.157
	c0.172,0.404,0.107,0.906,0.152,1.364c-0.26-0.266-0.52-0.532-0.781-0.796c-0.066-0.068-0.141-0.128-0.211-0.191
	c-0.008,0.158-0.037,0.32-0.02,0.477c0.129,1.107,0.268,2.214,0.402,3.32c-1.092-1.217-2.184-2.436-2.137-2.384
	C502.178,43.838,502.172,42.477,502.189,41.114z M500.33,36.533c0.449,0.939,1.266,1.879,1.26,2.815
	c-0.004,1.31-0.621,2.616-0.977,3.925c-0.4-0.704-0.803-1.407-1.363-2.393C499.607,39.441,499.969,37.988,500.33,36.533z
	 M497.518,81.547c0.553,0.906,1.107,1.813,1.627,2.667c-0.381,0.882-0.646,1.496-0.912,2.11c-0.498-0.938-1.176-1.833-1.42-2.833
	C496.676,82.935,497.26,82.2,497.518,81.547z M494.391,47.277c0.283,0.706,0.875,1.465,0.764,2.104
	c-0.113,0.663-0.801,1.444-1.438,1.728c-0.449,0.2-1.23-0.342-1.996-0.596C493.143,48.79,493.768,48.033,494.391,47.277z
	 M473.703,46.578c-0.938-1.529-2.543-3.033-2.6-4.594c-0.045-1.232,1.814-2.535,2.828-3.807c0.217,0.91,0.434,1.82,0.678,2.844
	C474.311,42.861,474.008,44.72,473.703,46.578z M480.844,52.4c-0.279,0.49-1.309,1.087-1.65,0.912
	c-1.035-0.525-2.283-1.224-2.717-2.186c-0.559-1.234-0.408-2.791-0.563-4.209c-0.018-3.127-0.059-6.247,0.012-9.363
	c0.016-0.75,0.395-1.492,0.607-2.238c0.412,0.355,0.949,0.635,1.213,1.078c1.67,2.807,3.289,5.646,4.898,8.488
	c0.248,0.438,0.357,0.953,0.529,1.434c-0.438-0.041-0.875-0.09-1.313-0.117c-0.129-0.008-0.264,0.049-0.395,0.076
	c0.125,0.094,0.264,0.176,0.371,0.286c0.527,0.538,1.045,1.083,1.564,1.626c-1.002,0.768-2,1.541-3.012,2.299
	c-0.072,0.054-0.227-0.002-0.344-0.006c0.006,0.096-0.016,0.205,0.023,0.285C480.35,51.33,481.014,52.1,480.844,52.4z
	 M483.539,56.324c-0.57-0.553-1.602-1.111-1.594-1.656c0.01-0.727,0.826-1.443,1.297-2.164c0.514,0.451,1.029,0.902,1.641,1.438
	C484.332,54.919,483.936,55.621,483.539,56.324z M476.287,28.055c3.15,5.137,6.301,10.273,9.252,15.084
	c-0.531,1.352-0.768,1.957-1.006,2.562c-0.357-0.429-0.811-0.809-1.057-1.294c-2.625-5.179-5.225-10.372-7.787-15.584
	C475.627,28.695,476.076,28.316,476.287,28.055z M471.068,38.408c0.979-2.777,2.01-5.535,3.025-8.299
	c0.148,0.584,0.297,1.17,0.854,3.365c-0.859,1.385-2.244,3.613-3.629,5.842C471.229,39.011,470.982,38.65,471.068,38.408z
	 M455.664,47.006c1.314,2.983,2.139,4.842,2.936,6.713c0.031,0.071-0.271,0.373-0.285,0.363c-1.629-1.049-3.314-2.036-4.766-3.295
	C453.385,50.646,454.545,48.975,455.664,47.006z M450.908,46.879c-0.441-0.59-1.363-1.332-1.234-1.741
	c0.373-1.183,1.17-2.231,1.801-3.333c0.176,0.511,0.35,1.021,0.637,1.858C451.746,44.636,451.328,45.758,450.908,46.879z
	 M448.098,25.758c1.309,2.458,2.615,4.916,3.93,7.385c-0.422,0.545-0.635,0.817-0.846,1.091c-1.445-1.855-3.061-3.614-4.227-5.632
	C446.639,28.057,447.68,26.728,448.098,25.758z M446.514,37.001c0.025-1.12,0.229-2.235,0.352-3.354
	c0.195,0.104,0.488,0.158,0.57,0.319c0.807,1.591,2.104,3.163,2.219,4.813c0.125,1.79-0.832,3.665-1.377,5.486
	c-0.211,0.704-0.584,1.36-0.883,2.038c-0.256-0.66-0.514-1.32-0.898-2.31C446.496,41.829,446.459,39.414,446.514,37.001z
	 M443.457,30.826c0.225-0.182,0.926-0.175,1.057,0.002c0.484,0.65,0.82,1.408,1.246,2.186c-0.84,3.287-1.623,6.393-2.451,9.486
	c-0.035,0.133-0.486,0.154-0.742,0.227C441.805,38.676,438.955,34.463,443.457,30.826z M439.016,41.035
	c0.871,1.381,1.855,2.707,2.551,4.172c0.266,0.556-0.137,1.428-0.236,2.156c-1.137-1.493-2.275-2.986-3.389-4.448
	C438.482,41.967,438.75,41.501,439.016,41.035z M423.084,37.941c0.73-1.542,1.561-3.036,2.359-4.545
	c0.389,0.738,0.777,1.479,1.381,2.627c-1.129,1.002-2.207,1.957-3.283,2.912C423.377,38.598,422.984,38.152,423.084,37.941z
	 M426.521,42.998c-0.713-0.804-2.043-1.656-1.984-2.398c0.072-0.918,1.299-1.744,2.027-2.609c0.285,0.323,0.57,0.646,1.021,1.154
	C427.227,40.447,426.875,41.723,426.521,42.998z M432.404,38.041c0.518,0.752,1.035,1.505,1.729,2.512
	c-0.621,0.578-1.172,1.46-1.598,1.402c-0.631-0.084-1.73-0.998-1.65-1.271C431.162,39.736,431.863,38.912,432.404,38.041z
	 M431.678,36.641c-0.4,1.271-1.49,2.325-2.293,3.469c-0.475-1.092-1.391-2.225-1.299-3.268c0.092-1.019,1.211-1.947,2.172-3.34
	C430.934,34.899,431.895,35.956,431.678,36.641z M427.234,29.57c0.836,1.11,1.869,2.141,2.377,3.385
	c0.139,0.34-1.303,1.324-2.02,2.014c-0.404-0.678-0.809-1.355-1.203-2.014C426.699,31.712,426.967,30.641,427.234,29.57z
	 M423.178,22.986c0.023-0.039,0.494,0.055,0.568,0.19c0.943,1.704,2.523,3.427,2.523,5.146c0.002,1.074-2.393,2.148-3.711,3.223
	c-0.438-1.555-0.875-3.109-1.389-4.934C421.82,25.42,422.482,24.193,423.178,22.986z M420.348,28.61
	c0.279,1.034,0.559,2.068,0.994,3.69c-1.229,1.058-2.539,2.184-3.848,3.311c-0.07-0.087-0.217-0.21-0.195-0.257
	C418.305,33.102,419.328,30.856,420.348,28.61z M419.063,38.525c0.045-0.042,0.271,0.112,0.656,0.283
	c-0.955,1.672-1.824,3.238-2.813,4.725c-0.031,0.049-1.279-0.711-1.961-1.095C416.313,41.129,417.68,39.817,419.063,38.525z
	 M414.705,43.576c0.527,0.531,1.479,1.061,1.482,1.596c0.008,0.766-0.68,1.537-1.789,3.715c-0.363-0.471-1.631-1.391-1.578-2.227
	C412.889,45.596,414.027,44.601,414.705,43.576z M399.972,41.252c-0.344-1.453-0.688-2.905-1.063-4.492
	c0.36-1.031,0.74-2.117,1.121-3.203c0.305,1.084,0.888,2.178,0.847,3.248C400.82,38.297,400.296,39.771,399.972,41.252z
	 M401.639,33.963c-0.322-1.131-0.879-2.26-0.898-3.396c-0.014-0.963,0.594-1.938,0.926-2.906c0.367,0.911,0.732,1.822,1.094,2.719
	C402.352,31.688,401.994,32.825,401.639,33.963z M399.958,19.416c0.576,1.803,1.153,3.605,1.792,5.602
	c-0.605,1.201-1.185,2.351-1.765,3.5c-0.465-1.293-1.338-2.6-1.295-3.876C398.75,22.887,399.502,21.156,399.958,19.416z
	 M398.289,27.662c0.446,0.992,0.892,1.983,1.317,2.931c-0.455,1.279-0.827,2.329-1.199,3.378c-0.307-1.225-0.789-2.439-0.857-3.678
	C397.502,29.433,398.022,28.541,398.289,27.662z M373.51,42.988c-0.333-0.525-0.95-1.054-0.943-1.574
	c0.015-1.162,0.34-2.32,0.599-3.831c1.016,1.229,2.233,2.063,2.3,2.981C375.521,41.321,374.213,42.177,373.51,42.988z
	 M387.614,46.863c-0.652,0.994-1.225,1.868-1.797,2.742c-0.491-0.647-1.413-1.314-1.385-1.938c0.063-1.379,0.604-2.735,0.951-4.102
	C386.098,44.623,386.813,45.68,387.614,46.863z M383.046,43.542c-0.928-1.493-1.672-3.101-2.442-4.688
	c-0.029-0.059,0.182-0.234,0.28-0.355c1.46,1.252,2.921,2.502,4.781,4.095C384.432,43.051,383.129,43.676,383.046,43.542z
	 M379.67,28.609c1.018,2.251,2.037,4.502,3.042,6.76c0.017,0.038-0.207,0.229-0.212,0.225c-1.325-1.146-2.64-2.303-3.863-3.377
	C379.104,30.584,379.387,29.597,379.67,28.609z M375.304,25.25c0.176-0.834,0.984-1.535,1.511-2.295
	c0.699,1.29,1.397,2.58,1.964,3.627c-0.472,1.959-0.83,3.448-1.188,4.937c-0.724-0.963-1.686-1.833-2.102-2.915
	C375.102,27.598,375.077,26.32,375.304,25.25z M375.839,34.539c0.333,1.436,0.431,2.928,0.62,4.396
	c-0.962-1.078-2.104-2.055-2.799-3.283c-0.282-0.498,0.41-1.547,0.678-2.41C374.994,33.784,375.734,34.088,375.839,34.539z
	 M372.754,29.568c0.357,0.275,0.713,0.551,1.062,0.82c-0.497,1.633-0.946,3.105-1.396,4.58c-0.72-0.685-2.168-1.664-2.031-2.002
	C370.895,31.719,371.923,30.684,372.754,29.568z M369.884,34.15c0.836,0.914,1.673,1.828,2.605,2.848
	c-0.776,1.272-1.333,2.188-1.891,3.104c-0.795-1.188-1.855-2.293-2.262-3.602C368.159,35.933,369.327,34.946,369.884,34.15z
	 M367.651,38.039c0.521,0.85,1.232,1.653,1.461,2.576c0.081,0.327-0.964,1.226-1.587,1.334c-0.427,0.074-1.013-0.766-1.708-1.35
	C366.557,39.566,367.104,38.803,367.651,38.039z M353.126,45.389c-0.025,0.314-0.387,0.603-0.592,0.902
	c-0.187-0.273-0.493-0.526-0.542-0.822c-0.511-3.073-1.184-6.145-1.326-9.238c-0.038-0.83,1.574-1.735,2.428-2.606
	c0.217,1.34,0.433,2.68,0.565,3.497C353.467,40.245,353.328,42.819,353.126,45.389z M360.969,41.037
	c0.273,0.458,0.546,0.916,1.103,1.85c-1.118,1.477-2.252,2.973-3.385,4.469c-0.112-0.132-0.348-0.317-0.318-0.389
	C359.219,44.983,360.096,43.012,360.969,41.037z M355.477,30.826c0.022-0.093,0.923-0.181,1.032-0.016
	c0.992,1.491,2.615,3.02,2.661,4.577c0.069,2.313-0.987,4.661-1.596,6.986c-0.057,0.217-0.339,0.374-0.517,0.56
	c-0.242-0.586-0.485-1.173-0.769-1.859c-0.509-2.077-1.218-4.207-1.492-6.392C354.639,33.439,355.173,32.102,355.477,30.826z
	 M351.938,25.764c0.497,0.844,0.995,1.689,1.81,3.074c-1.707,1.854-3.336,3.625-4.965,5.395c-0.154-0.281-0.51-0.654-0.43-0.83
	C349.514,30.84,350.733,28.305,351.938,25.764z M348.603,41.797c0.601,1.133,1.362,2.219,1.713,3.424
	c0.116,0.396-0.83,1.102-1.29,1.666c-0.386-1.116-0.771-2.232-1.149-3.325C348.176,42.836,348.389,42.316,348.603,41.797z
	 M344.265,48.348c0.896,0.643,1.791,1.284,3.2,2.293c-1.441,1.35-2.176,2.37-3.171,2.867c-0.811,0.404-1.934,0.183-2.918,0.238
	C342.338,51.947,343.302,50.147,344.265,48.348z M330.444,40.521c-2.12,3.099-3.133,4.577-4.146,6.058
	c-0.142-0.256-0.409-0.513-0.405-0.766c0.033-2.546,0.11-5.09,0.175-7.635C327.558,38.976,329.048,39.773,330.444,40.521z
	 M325.884,30.102c1.028,2.838,2.064,5.672,3.059,8.521c0.057,0.162-0.229,0.442-0.354,0.668c-1.311-1.906-2.621-3.813-3.3-4.801
	C325.634,31.949,325.759,31.025,325.884,30.102z M323.552,50.59c-0.06,0.961-1.54,1.949-2.549,2.667
	c-0.296,0.21-1.224-0.468-1.862-0.739c0.269-0.589,0.539-1.178,0.808-1.766c-0.882-0.402-2.318-0.633-2.509-1.249
	c-0.257-0.829,0.437-1.959,0.749-2.952c0.039-0.123,0.3-0.173,0.346-0.299c1.066-2.938,2.053-5.905,3.211-8.805
	c0.324-0.812,1.147-1.424,1.742-2.127c0.064,0.174,0.128,0.348,0.183,0.497c0.074,0.201,0.115,0.312,0.136,0.369
	c-0.024-0.066-0.072-0.196-0.136-0.369C323.671,41.837,323.824,46.227,323.552,50.59z M315.023,44.664
	c1.58-3.565,3.174-7.127,4.901-10.623c0.819-1.658,1.897-3.19,2.909-4.746c0.329-0.506,0.818-0.906,1.234-1.354
	c0.132,0.537,0.263,1.073,0.73,2.979c-2.686,4.381-5.857,9.555-9.027,14.727C315.506,45.313,314.942,44.846,315.023,44.664z
	 M316.542,52.607c0.164-0.067,0.528-0.019,0.586,0.092c0.382,0.715,0.706,1.463,1.048,2.199c-0.233-0.261-0.467-0.521-0.7-0.783
	c-0.09,0.119-0.202,0.227-0.265,0.357c-0.295,0.622-0.576,1.25-0.862,1.876c-0.354-0.759-0.708-1.519-1.392-2.986
	C315.41,53.141,315.963,52.843,316.542,52.607z M305.67,47.289c0.606,0.773,1.212,1.548,2.001,2.557
	c-0.607,0.551-1.046,0.947-1.485,1.346c-0.478-0.619-1.245-1.193-1.348-1.869C304.745,48.701,305.365,47.971,305.67,47.289z
	 M302.521,81.554c0.251,0.704,0.827,1.488,0.678,2.095c-0.234,0.956-0.955,1.793-1.47,2.68c-0.256-0.67-0.512-1.341-0.859-2.247
	C301.405,83.263,301.963,82.408,302.521,81.554z M299.753,36.532c0.346,0.69,0.691,1.382,1.097,2.193
	c-0.491,1.565-0.958,3.058-1.426,4.55c-0.365-1.297-1.007-2.594-1.002-3.89C298.426,38.433,299.279,37.483,299.753,36.532z
	 M297.023,41.538c0.088-0.288,0.27-0.548,0.407-0.819c0.116,0.086,0.338,0.18,0.333,0.26c-0.167,2.604-0.354,5.205-0.539,7.807
	c-0.465-0.188-0.931-0.374-1.396-0.561c-0.017,0.084-0.033,0.17-0.049,0.254c-0.26-0.064-0.52-0.129-0.78-0.193
	C295.672,46.035,296.339,43.783,297.023,41.538z M290.047,61.968c0.888-2.433,1.805-4.855,2.715-7.28
	c0.129,0.247,0.258,0.494,0.711,1.365c-0.986,1.979-2.108,4.232-3.231,6.486C290.171,62.347,289.993,62.115,290.047,61.968z
	 M288.029,48.842c0.515,0.539,1.555,1.434,1.466,1.563c-1.476,2.181-3.094,4.265-4.679,6.37c-0.243-0.493-0.485-0.987-1.279-2.605
	C284.917,52.533,286.473,50.688,288.029,48.842z M278.106,49.414c0.03-0.018,0.605,0.641,0.533,0.783
	c-1.298,2.548-2.658,5.064-4.003,7.588c-0.919-1.273-1.838-2.546-3.237-4.484C273.946,51.806,276.014,50.588,278.106,49.414z
	 M269.49,54.737c0.099,0.165,0.32,0.372,0.279,0.487c-0.735,2.115-1.502,4.219-2.263,6.324c-0.187-0.211-0.374-0.424-0.846-0.957
	C267.6,58.648,268.545,56.693,269.49,54.737z M264.458,43.735c0.084,0.198,0.167,0.397,0.457,1.081
	c-0.668,1.104-1.469,2.427-2.271,3.75c-0.189-0.287-0.609-0.699-0.532-0.842C262.846,46.369,263.664,45.059,264.458,43.735z
	 M260.832,49.584c0.228,0.423,0.456,0.846,0.969,1.8c-0.917,1.073-1.893,2.214-2.87,3.356c-0.255-0.303-0.792-0.764-0.725-0.883
	C259.031,52.404,259.942,51,260.832,49.584z M254.613,50.276c0.364-1.865,1.123-3.683,1.933-5.421
	c0.462-0.992,1.34-1.791,2.031-2.677c0.402,1.171,0.804,2.343,1.168,3.401c-1.298,2.639-2.494,5.078-3.708,7.508
	c-0.033,0.064-0.363,0.077-0.378,0.041C255.265,52.178,254.447,51.13,254.613,50.276z M253.563,51.001
	c0.408,1.225,0.855,2.438,1.187,3.685c0.06,0.225-0.359,0.576-0.557,0.869c-0.616-0.74-1.233-1.48-1.887-2.266
	C252.827,52.339,253.195,51.67,253.563,51.001z M244.03,48.211c0.56-1.051,1.327-1.99,2.018-2.969
	c0.278,0.535,0.916,1.227,0.765,1.578c-0.423,0.981-1.172,1.822-1.944,2.937C244.479,49.07,243.901,48.452,244.03,48.211z
	 M222.726,48.183c0.816,1.2,1.632,2.401,2.511,3.694c-0.802,1.552-1.489,2.884-2.178,4.216c-1.365-1.282-3.681-2.479-3.808-3.874
	C219.138,50.989,221.472,49.537,222.726,48.183z M199.452,87.695c-0.4-0.42-0.947-0.785-1.129-1.284
	c-0.077-0.211,0.615-0.702,0.852-0.954c0.956-0.142,1.639-0.242,2.321-0.344C200.814,85.974,200.133,86.835,199.452,87.695z
	 M200.687,56.225c0.096-1.432,1.291-2.789,1.998-4.18c1.002,1.085,2.003,2.17,3.265,3.535c-1.586,2.289-2.884,4.16-4.182,6.033
	C201.366,59.814,200.569,57.988,200.687,56.225z M199.398,58.129c0.328,1.402,0.783,2.791,0.917,4.211
	c0.05,0.527-0.656,1.125-1.017,1.689c-0.389-1.104-0.778-2.206-1.203-3.412C198.559,59.732,198.979,58.932,199.398,58.129z
	 M191.621,70.58c-0.051,0.518-0.656,0.98-1.009,1.468c-0.23-0.494-0.461-0.988-0.842-1.803c0.562-0.989,1.143-2.013,1.723-3.036
	C191.553,68.334,191.73,69.472,191.621,70.58z M192.963,43.932c0.232,0.26,0.463,0.52,1.319,1.479
	c-1.414,2.481-2.897,5.086-4.381,7.691c-0.083-0.142-0.269-0.32-0.233-0.418C190.752,49.762,191.859,46.848,192.963,43.932z
	 M189.537,57.783c0.703-1.607,1.699-3.088,2.582-4.616c0.127,0.19,0.254,0.38,0.48,0.718c-0.822,1.977-1.641,3.944-2.459,5.912
	C189.916,59.115,189.322,58.273,189.537,57.783z M178.931,55.751c0.786-1.606,2.575-2.722,3.937-4.046
	c0.313,0.511,0.625,1.021,1.105,1.805c-1.313,2.295-2.567,4.496-3.85,6.682c-0.032,0.055-0.541-0.045-0.557-0.125
	C179.279,58.608,178.401,56.832,178.931,55.751z M174.879,49.703c0.163,0.488,0.505,0.994,0.457,1.459
	c-0.226,2.169-0.56,4.327-0.855,6.488c-0.229-0.77-0.457-1.538-0.687-2.312C174.169,53.392,174.524,51.548,174.879,49.703z
	 M162.805,60.777c-0.721-0.751-2.189-1.887-2.035-2.186c0.702-1.357,1.86-2.479,2.854-3.687c0.257,0.722,0.514,1.444,0.852,2.396
	C163.926,58.443,163.365,59.61,162.805,60.777z M162.75,48.592c0.308,0.473,0.615,0.946,1.001,1.542
	c-1.552,2.419-3.047,4.747-4.542,7.075c-0.772-0.719-2.259-2.021-2.215-2.076C158.827,52.883,160.797,50.744,162.75,48.592z
	 M156.76,57.231c0.506-0.177,1.319,0.53,1.992,0.832c-1.198,1.849-2.396,3.697-3.595,5.546c-0.515-0.852-1.03-1.704-2.625-4.343
	C153.736,58.662,155.189,57.779,156.76,57.231z M138.281,80.826c-0.601-0.206-1.408-0.926-1.424-1.448
	c-0.023-0.716,0.611-1.453,0.964-2.182c0.546,0.72,1.092,1.44,2.274,3C139.414,80.457,138.731,80.98,138.281,80.826z
	 M144.109,51.451c0.473,2.383,0.945,4.768,1.33,6.711c-0.32,1.803-0.541,3.047-0.761,4.29c-0.258-1.252-0.701-2.499-0.736-3.757
	C143.875,56.283,144.041,53.866,144.109,51.451z M142.308,53.594c0.263,1.09,0.525,2.182,0.815,3.383
	c-0.17,0.504-0.345,1.02-0.519,1.536c-0.52-0.874-1.349-1.711-1.459-2.634C141.061,55.174,141.887,54.359,142.308,53.594z
	 M140.639,72.5c0.27,0.384,0.539,0.768,0.889,1.266c-0.498,1.058-0.956,2.03-1.414,3.003c-0.367-0.61-1.14-1.329-1.014-1.809
	C139.336,74.066,140.097,73.313,140.639,72.5z M137.922,67.924c0.481,0.511,1.337,1.019,1.341,1.532
	c0.004,0.554-0.791,1.113-1.495,1.993c-0.491-0.731-0.985-1.159-0.907-1.408C137.094,69.298,137.552,68.625,137.922,67.924z
	 M135.503,51.237c0.398,0.778,0.797,1.557,1.502,2.933c-1.045,1.783-2.173,3.709-3.302,5.635c-0.159-0.264-0.504-0.578-0.447-0.783
	C133.972,56.418,134.745,53.83,135.503,51.237z M130.941,46.084c0.041-0.169,0.938-0.134,1.446-0.192
	c-0.007-0.011-0.011-0.022-0.018-0.034c0.005-0.001,0.012-0.002,0.018-0.003c-0.139-0.369-0.278-0.738-0.417-1.106
	c-0.521,0.212-1.042,0.424-1.563,0.636c0.075-0.216,0.119-0.452,0.231-0.647c1.114-1.932,2.24-3.855,3.363-5.782
	c0.122,0.212,0.324,0.415,0.351,0.639c0.229,1.934,0.479,3.87,0.518,5.81c0.003,0.134-1.607,0.301-2.482,0.452
	c0.004,0.012,0.009,0.024,0.014,0.036c-0.004,0-0.009,0-0.013,0.001c3.138,5.402,0.563,9.521-3.09,13.354
	c-0.24,0.252-0.907,0.096-1.376,0.131C128.908,54.941,129.879,50.502,130.941,46.084z M126.588,43.72
	c0.107,0.231,0.369,0.549,0.296,0.683c-1.005,1.841-2.057,3.656-3.097,5.479c-0.147-0.213-0.295-0.426-0.746-1.074
	C124.209,47.133,125.399,45.427,126.588,43.72z M125.648,64.239c0.49,1.774,1.1,3.53,1.378,5.337
	c0.063,0.414-1.018,1.004-1.572,1.514c-0.888-1.115-1.776-2.229-2.833-3.557C123.872,66.172,124.76,65.205,125.648,64.239z
	 M118.839,79.727c-0.163,2.248-0.33,4.495-0.496,6.743c-0.41-1.739-0.976-3.465-1.142-5.227c-0.057-0.601,0.892-1.295,1.588-2.222
	C118.824,79.501,118.847,79.615,118.839,79.727z M119.179,58.006c0.512,0.592,1.024,1.186,1.269,1.469
	c-0.165,1.768-0.27,2.897-0.375,4.027c-0.692-1.393-1.457-2.757-2.005-4.204C117.971,59.044,118.785,58.445,119.179,58.006z
	 M116.6,46.298c0.621,1.545,1.581,3.064,1.699,4.646c0.048,0.647-1.724,1.431-2.668,2.151c-0.49-0.839-0.979-1.677-1.595-2.73
	C114.953,48.91,115.776,47.604,116.6,46.298z M114.113,55.289c0.138-0.049,1.161,1.482,0.997,1.701
	c-1.03,1.381-2.279,2.598-3.456,3.869c-0.272-0.485-0.544-0.97-0.817-1.454c-0.579-0.679-1.158-1.356-1.736-2.034
	C110.762,56.648,112.406,55.878,114.113,55.289z M109.687,43.41c0.444,1.066,1.174,2.115,1.241,3.205
	c0.052,0.846-0.724,1.742-1.132,2.615c-0.243-1.139-0.487-2.276-0.76-3.554C109.244,44.952,109.465,44.182,109.687,43.41z
	 M101.317,51.051c0.412,1.284,0.824,2.568,1.254,3.912c-0.22,0.366-0.392,0.654-0.564,0.941c-0.583-0.739-1.535-1.427-1.647-2.231
	C100.246,52.859,100.963,51.93,101.317,51.051z M100.285,42.423c0.177,0.619,0.354,1.238,0.692,2.419
	c-0.287,1.678-0.654,3.83-1.021,5.982c-0.476-1.38-1.378-2.78-1.312-4.134C98.715,45.244,99.699,43.844,100.285,42.423z
	 M97.69,47.801c0.37,1.518,0.789,3.027,1.067,4.563c0.055,0.303-0.436,0.703-0.675,1.059c-0.663-0.813-1.326-1.627-2.035-2.496
	C96.728,49.63,97.209,48.715,97.69,47.801z M85.121,49.232c5.102-0.014,7.138,5.842,4.462,11.068
	c-0.464,0.908-1.174,1.689-1.77,2.531c-0.867-1.021-2.211-1.922-2.506-3.087c-0.723-2.858-1.061-5.829-1.319-8.775
	C83.932,50.332,84.86,49.607,85.121,49.232z M75.445,66.469c-0.407-0.82-0.814-1.641-1.315-2.653
	c0.481-1.145,0.95-2.259,1.418-3.373c0.729,1.028,2.028,2.061,2.022,3.085C77.565,64.512,76.208,65.489,75.445,66.469z
	 M77.109,57.684c-0.917-0.625-2.701-1.555-2.605-1.826c0.545-1.562,1.536-2.967,2.376-4.424c0.377,0.973,0.754,1.947,1.071,2.765
	C77.623,55.558,77.366,56.621,77.109,57.684z M82.418,53.122c-0.739,1.584-1.434,3.075-2.129,4.565
	c-0.469-1.53-1.286-3.061-1.282-4.59c0.002-0.98,1.213-1.957,1.883-2.936C81.357,51.064,81.823,51.967,82.418,53.122z
	 M81.128,48.672c0,0.46-1.046,0.922-1.989,1.68c-0.395-0.848-0.885-1.432-0.75-1.697c0.493-0.963,1.194-1.82,1.817-2.717
	C80.547,46.849,81.126,47.76,81.128,48.672z M75.233,36.922c0.176-1.637,2.318-3.063,3.59-4.581
	c0.416,1.946,0.831,3.892,1.332,6.237c-0.898,1.379-1.882,2.889-2.867,4.397C76.528,40.949,75.027,38.844,75.233,36.922z
	 M74.223,37.588c0.373,0.984,1.135,2.005,1.047,2.945c-0.29,3.111-0.875,6.193-1.392,9.28c-0.041,0.239-0.435,0.42-0.665,0.628
	c-0.08-0.314-0.159-0.629-0.264-1.043c0.329-1.333,0.668-2.712,1.008-4.09c-0.563,1.511-0.995,3.092-1.741,4.506
	c-0.431,0.819-1.369,1.371-2.079,2.043c-0.439-1.033-1.459-2.241-1.211-3.068c0.888-2.965,2.141-5.828,3.396-8.667
	C72.738,39.182,73.577,38.428,74.223,37.588z M68.935,45.203c0.027-0.029,0.21,0.086,0.472,0.2
	c-0.722,1.429-1.383,2.734-2.044,4.041c-0.419-0.38-0.838-0.758-1.258-1.137C67.045,47.27,67.983,46.229,68.935,45.203z
	 M65.764,49.531c0.53,0.503,1.059,1.006,1.696,1.611c-0.669,1.363-1.208,2.46-1.747,3.558c-0.466-1.065-1.176-2.104-1.3-3.208
	C64.345,50.896,65.281,50.188,65.764,49.531z M62.879,53.396c0.383,0.648,0.767,1.295,1.338,2.26c-0.71,0.5-1.262,0.889-1.813,1.276
	c-0.255-0.417-0.802-0.922-0.708-1.234C61.94,54.887,62.466,54.158,62.879,53.396z M57.939,31.266
	c2.924-4.65,5.962-9.229,8.981-13.82c0.17-0.258,0.523-0.397,0.791-0.592c0.026,0.314,0.162,0.672,0.061,0.939
	c-2.147,5.727-4.315,11.446-6.505,17.157c-0.121,0.315-0.467,0.546-0.708,0.815c-0.11-0.322-0.22-0.645-0.289-0.846
	c0.079-0.424,0.13-0.697,0.181-0.973c0.262-1.401,0.524-2.803,0.787-4.205c-0.495,1.046-0.797,2.267-1.541,3.087
	c-0.715,0.788-1.888,1.162-2.859,1.718C57.193,33.446,57.343,32.215,57.939,31.266z M44.703,40.466
	c0.376,1.54,0.805,3.07,1.079,4.628c0.049,0.281-0.542,0.676-0.838,1.018c-0.452-0.99-0.904-1.979-1.373-3.004
	C44.008,42.085,44.355,41.275,44.703,40.466z M41.602,41.863c0.053-0.026,0.49,0.405,0.459,0.57
	c-0.536,2.867-1.118,5.728-1.689,8.589c-0.765-2.185-1.531-4.37-2.515-7.179C39.145,43.15,40.362,42.483,41.602,41.863z
	 M26.638,47.124c-0.224-0.604-0.448-1.208-1.062-2.863c0.917-2.823,2.06-6.362,3.226-9.895c0.056-0.169,0.314-0.271,0.479-0.405
	c0.062,0.293,0.216,0.601,0.173,0.877c-0.561,3.564-1.114,7.131-1.768,10.679C27.579,46.098,26.999,46.59,26.638,47.124z
	 M31.62,59.504c-0.642-0.695-1.327-1.359-1.857-2.131c-0.054-0.078,0.828-0.799,1.451-1.389c0.616,0.578,1.458,1.039,1.417,1.398
	C32.544,58.119,31.984,58.801,31.62,59.504z M31.794,22.405c-0.008-0.092-0.015-0.178-0.023-0.272
	c0.043,0.085,0.079,0.156,0.109,0.215C31.855,22.367,31.822,22.386,31.794,22.405c0.236,2.842,0.408,4.799,0.546,6.749
	c0.019,0.272-0.144,0.557-0.222,0.836c-0.208-0.166-0.587-0.322-0.598-0.5c-0.135-2.206-0.231-4.414-0.281-6.624
	C31.235,22.718,31.563,22.561,31.794,22.405z M32.004,34.798c0.034-0.146,0.335-0.231,0.512-0.345
	c0.456,2.373,1.217,4.748,1.203,7.119c-0.005,0.855-1.861,1.715-2.914,2.517c-0.07,0.054-0.496-0.358-0.767-0.562
	C30.725,40.446,31.349,37.618,32.004,34.798z M32.713,46.856c0.75,0.728,2.269,1.854,2.131,2.12
	c-1.268,2.439-2.822,4.729-4.293,7.063c-0.346-0.257-0.692-0.514-1.896-1.408C30.041,51.974,31.377,49.415,32.713,46.856z
	 M28.24,27.76c0.077-0.188,0.471-0.247,0.717-0.366c0.183,0.852,0.758,1.866,0.485,2.529c-2.063,5.001-4.288,9.934-6.481,14.88
	c-0.126,0.283-0.424,0.491-0.642,0.734c-0.04-0.306-0.079-0.611-0.303-2.346C23.776,38.811,25.993,33.279,28.24,27.76z
	 M18.776,46.65c0.491,0.6,0.981,1.197,1.884,2.3c-1.236,1.041-2.21,1.86-3.184,2.681c-0.151-0.342-0.512-0.766-0.417-1.015
	C17.569,49.271,18.192,47.968,18.776,46.65z M13.947,42.359c0.44,1.877,0.9,3.749,1.297,5.635c0.05,0.24-0.223,0.549-0.347,0.825
	c-0.596-1.58-1.192-3.16-1.712-4.539C13.545,43.373,13.746,42.866,13.947,42.359z M7.7,48.566c0.339-1.172,1.133-2.211,1.746-3.303
	c0.098,0.221,0.196,0.441,0.365,0.822c-0.284,1.378-0.583,2.832-0.882,4.285C8.488,49.761,7.571,49.012,7.7,48.566z M2.233,85.051
	c0.412,0.742,1.304,1.613,1.147,2.205c-0.263,0.992-0.608,1.962-0.978,2.926H1.127c0-0.016,0-0.034,0-0.05
	C1.544,88.215,1.889,86.633,2.233,85.051z"/>
</svg>
